<svg version="1.1" xmlns="http://www.w3.org/2000/svg" xmlns:xlink="http://www.w3.org/1999/xlink" width="54.88501" height="55.36675" viewBox="0,0,54.88501,55.36675"><g transform="translate(-212.03811,-151.35149)"><g data-paper-data="{&quot;isPaintingLayer&quot;:true}" fill-rule="nonzero" stroke="none" stroke-width="0.5" stroke-linecap="butt" stroke-linejoin="miter" stroke-miterlimit="10" stroke-dasharray="" stroke-dashoffset="0" style="mix-blend-mode: normal"><path d="" fill="#000000"/><path d="M222.02484,163.95834c0.7695,-0.7775 1.83803,-0.8388 2.10661,-2.41343c0.2147,-1.25871 -1.14695,-1.16849 -1.64746,-2.26179c-0.90634,-1.97979 0.30255,-3.50451 2.18641,-3.97652c1.13706,-0.28427 3.1116,-1.04222 4.26616,-0.66014c1.73304,0.57352 0.40672,2.07367 1.11377,3.04901c0.98966,1.36521 3.68176,1.32475 4.81602,0.16666c0.44475,-1.43309 -0.23084,-4.39087 0.72513,-5.57686c1.89429,-2.35011 6.03353,0.18252 6.03353,2.67306c0,2.24526 1.66399,3.36219 3.96439,2.37607c0.9254,-0.39669 1.37405,-1.41555 2.34427,-1.83801c1.03219,-0.44946 2.09704,-0.3714 3.19134,-0.3714c2.05387,0 3.85587,3.32496 2.96194,5.35801c-0.23516,0.53483 -1.08514,0.67894 -1.13506,1.22208c-0.09084,0.98829 -0.4162,2.95719 0.66457,3.2789c1.39183,0.48639 1.95885,-0.39799 3.12221,-0.97482c2.77238,-1.37463 5.46614,-0.41192 6.67693,2.41355c0.31147,0.72684 0.37344,1.59238 0.37608,2.36894c0,2.94816 -1.98363,1.94897 -3.50573,3.37773c-0.31779,0.2983 -0.16093,1.32252 -0.16093,1.62227c0,0.39169 -0.23106,1.74554 -0.09438,2.04098c0.04372,0.09449 2.49036,-0.04098 2.76105,-0.04098c0.53033,0 1.97193,-0.38358 2.39027,-0.11388c1.37014,0.88329 0.8928,4.23865 -0.25344,5.1779c-1.53368,1.25672 -2.60014,0.40707 -3.32916,2.5941c-0.20948,0.62843 -0.46024,1.88706 -0.92994,2.33615c-2.42333,2.31703 -6.34215,-2.52091 -7.173,-4.46959c-0.42907,-1.00634 0.14914,-1.49095 0.13506,-2.4381c0.60201,-1.87038 0.94813,-6.50977 -0.40381,-8.11641c-0.89556,-1.06428 -2.48114,-2.06326 -3.65565,-2.85434c-4.38745,-1.41582 -7.69682,-3.61583 -12.44699,-3.61583c-1.05078,-0.01615 -1.79793,1.01528 -2.47978,1.68689c-2.7583,2.71688 -5.54564,4.96956 -7.73773,8.19946c-1.41695,4.38471 -3.07475,9.75135 -0.85003,14.19602c0.82989,1.24028 1.69181,2.59583 2.60617,3.75016c0.54159,0.68374 2.30401,0.8431 3.07107,1.01299c2.32199,0.51429 4.50727,1.15448 6.89031,1.15448c1.44202,0 4.56315,-1.30149 5.73593,-0.6075c0.9059,0.53607 3.1505,5.6174 2.28429,6.46105c-0.3516,0.34244 -0.97451,0.15145 -1.44013,0.30666c-1.86815,0 0.24089,4.08079 -1.34416,5.11396c-0.90832,0.59206 -4.27638,0.22583 -5.40259,0.22583c-3.92057,0 -2.75761,-2.70696 -2.80627,-5.17106c-0.00895,-0.45338 -0.90693,0.0044 -1.3604,0.0044c-1.5598,0 -1.86109,0.10969 -2.75064,1.44402c-2.37271,3.55665 -7.36014,3.02099 -8.89788,-1.14388c-0.49932,-1.35238 0.25499,-3.03585 0.66846,-4.27326c1.19923,-4.68595 -4.57266,-0.91308 -6.04461,-1.7316c-1.34256,-0.74656 -2.02224,-3.1716 -2.46886,-4.54852c-0.02136,-2.4704 1.40591,-2.66935 2.36494,-4.60477c0.04305,-0.08687 0.26258,-1.48427 0.20328,-1.54579c-0.60978,-0.63259 -2.01401,-0.05382 -2.71957,-0.28432c-1.37426,-0.44897 -1.85878,-1.59834 -2.17351,-2.85728c-0.25352,-1.0361 -0.81849,-5.48622 -0.03514,-6.30815c0.57455,-0.60285 2.68934,-0.57567 3.54584,-1.20721c1.20561,-0.88896 0.76207,-1.99161 1.03354,-3.2033c-2.27504,-1.03598 -3.57857,-4.65451 -0.80551,-6.33769c2.17093,-1.3177 3.45488,-0.03223 5.57968,-0.0649c0.07772,0 0.15545,0 0.23318,0zM221.46013,164.93509c-1.05972,-0.13352 -2.01022,-0.78816 -3.10737,-0.64717c-1.81458,0.23317 -2.55352,1.50319 -2.56109,3.17041c-0.00115,0.25179 -0.09158,1.20835 0.28803,1.42462c0.63448,0.36149 1.18385,0.51424 1.81948,1.00611c0.26738,3.32595 -1.37629,5.42266 -4.75395,5.58948c-0.49507,0.02445 0.14644,0.98411 0.14644,1.47978c0,1.27406 -0.16544,2.6415 0.15174,3.87873c0.82013,3.28052 3.2051,0.77539 4.77358,2.85841c1.37453,1.82543 -2.41029,4.56405 -2.43178,6.51611c0.34719,0.99931 0.90704,3.20735 1.86446,3.78482c0.90774,0.5475 2.06769,-0.53271 2.77305,-0.82865c2.43928,-1.02344 4.39093,1.55472 3.849,3.76371c-0.35014,1.0528 -1.10863,2.57189 -0.66487,3.72674c1.30402,3.39365 5.20398,3.70535 7.10212,0.85612c0.75878,-1.13816 4.81079,-3.60954 5.88896,-1.21825c0.8117,1.80029 -1.88129,4.4956 1.8604,4.4956c1.2474,0 3.84326,0.33662 4.93073,-0.1075c0.22629,-0.09241 0.06927,-1.36868 0.06927,-1.55917c0,-1.47146 -0.39138,-3.66021 1.58657,-3.66021c0.28258,-0.0942 0.60218,-0.09015 0.89321,-0.02667c0.23917,0.05217 -0.22492,-0.43824 -0.29318,-0.67332c-0.15333,-0.52804 -0.27242,-0.72205 -0.48943,-1.30115c-0.26131,-0.6973 -0.62352,-2.49532 -1.26644,-2.89781c-0.72376,-0.4531 -4.1624,0.72583 -5.26407,0.72583c-2.51307,0 -8.96384,-0.4762 -10.70529,-2.49919c-0.98637,-1.14583 -1.8794,-2.64064 -2.72717,-3.91651c-2.3697,-4.74366 -0.78131,-10.44723 0.81663,-15.1373c2.21889,-3.37662 5.13614,-5.62507 7.92894,-8.46722c0.8966,-0.91245 1.80571,-1.96441 3.18688,-1.97978c4.87492,0 8.40577,2.18678 12.88634,3.71751c1.28077,0.84784 3.0782,1.94779 4.01102,3.14566c1.45996,1.87479 1.34855,6.72108 0.59619,8.88359c-0.00719,0.55624 -0.43808,0.99466 -0.33334,1.50648c0.22752,1.11173 4.11341,6.2625 5.62873,4.58582c0.3598,-0.3981 0.55595,-1.45485 0.73672,-1.99717c0.80698,-2.42094 1.99453,-1.79901 3.67084,-3.07258c0.54926,-0.4173 1.05818,-3.0093 0.41322,-3.48877c-0.09959,-0.07404 -1.66262,0.21945 -1.94306,0.21945c-0.85827,0 -2.98693,0.36396 -3.57229,-0.37431c-0.60769,-0.76643 -0.19405,-4.38188 0.41135,-5.00341c1.2512,-1.28454 3.16093,-0.21689 3.16093,-2.62228c0.0025,-0.63538 -0.03533,-1.36885 -0.29059,-1.96439c-2.27233,-5.30136 -5.78908,0.20249 -9.20086,-0.8946c-1.4401,-0.51361 -2.06777,-3.7658 -1.07258,-5.11117c0.23414,-0.31653 0.78718,-0.35644 0.93542,-0.72118c0.56328,-1.38601 -0.60358,-3.97532 -2.03806,-3.97532c-3.29094,0 -10.5,5.90626 -10.5,-1.16666c0,-1.84961 -0.79803,-2.16667 -2.5,-2.16667c-0.35109,0 -1.55088,-0.14523 -1.7998,0.17306c-0.74437,0.95182 -0.17126,4.15299 -0.6082,5.42314c-1.5957,1.57985 -5.14198,2.00457 -6.51731,-0.16666c-0.4972,-0.78492 0.08711,-1.72874 -0.31672,-2.47484c-0.33008,-0.60985 -3.41736,0.39221 -3.97002,0.53038c-3.99573,0.99659 0.51496,3.53884 0.20561,5.42835c-0.23389,1.4286 -1.3234,1.88682 -2.05225,2.49638c0.03589,0.06605 0.05871,0.15005 0.05871,0.25687c0,0.5 -0.5,0.5 -0.5,0.5h-0.14428c-0.01887,0.05071 -0.03496,0.10333 -0.04805,0.15811c0,0 -0.15811,0.47434 -0.63245,0.31623c-0.31208,-0.10403 -0.35039,-0.34493 -0.34009,-0.49758z" fill="#000000"/><path d="M221.76079,165.40194c0.47434,0.15812 0.63339,-0.31739 0.63339,-0.31739c0.01308,-0.05478 0.0294,-0.10767 0.04827,-0.15838l0.14442,-0.00017c0,0 0.50108,-0.00124 0.50108,-0.50124c0,-0.10682 -0.02258,-0.19107 -0.05847,-0.25712c0.72886,-0.60956 1.82371,-1.07281 2.0576,-2.50141c0.30935,-1.88951 -4.19635,-4.43532 -0.20061,-5.43191c0.55266,-0.13816 3.64636,-1.14361 3.97644,-0.53377c0.40383,0.7461 -0.18188,1.69056 0.31531,2.47548c1.37534,2.17123 4.93516,1.7423 6.53086,0.16245c0.43695,-1.27015 -0.13338,-4.47169 0.61099,-5.42351c0.24892,-0.31829 1.45217,-0.17329 1.80326,-0.17329c1.70197,0 2.50508,0.31714 2.50508,2.16675c0,7.07292 7.22921,1.17245 10.52015,1.17245c1.43448,0 2.60794,2.59354 2.04466,3.97955c-0.14823,0.36474 -0.70184,0.40424 -0.93598,0.72077c-0.99519,1.34537 -0.35999,4.60437 1.08011,5.11798c3.41178,1.09709 6.93593,-4.39602 9.20825,0.90534c0.25527,0.59554 0.29464,1.33231 0.29213,1.96769c0,2.40538 -1.90875,1.34026 -3.15995,2.6248c-0.60541,0.62153 -1.01644,4.24797 -0.40875,5.0144c0.58536,0.73827 2.71418,0.37597 3.57245,0.37597c0.28044,0 1.84347,-0.29359 1.94306,-0.21955c0.64496,0.47947 0.13617,3.07826 -0.41309,3.49556c-1.67631,1.27356 -2.86476,0.65895 -3.67174,3.07989c-0.18077,0.54233 -0.37809,1.60375 -0.73789,2.00185c-1.51532,1.67668 -5.49878,-3.49406 -5.7263,-4.60578c-0.10475,-0.51182 0.32583,-0.94533 0.33303,-1.50158c0.75235,-2.16251 0.87047,-6.98315 -0.58949,-8.85793c-0.93282,-1.19787 -2.72103,-2.28625 -4.0018,-3.13408c-4.48057,-1.53073 -7.97136,-3.70446 -12.84628,-3.70446c-1.38118,0.01537 -2.27879,1.06454 -3.17539,1.97699c-2.7928,2.84215 -5.68098,5.06201 -7.89987,8.43864c-1.59794,4.69008 -3.19244,10.34596 -0.82274,15.08962c0.84777,1.27587 1.73145,2.76093 2.71782,3.90676c1.74145,2.02299 8.16226,2.48837 10.67533,2.48837c1.10168,0 4.52433,-1.17669 5.24809,-0.72359c0.64291,0.40249 1.00428,2.20077 1.26559,2.89808c0.21701,0.57909 0.33598,0.77315 0.48931,1.3012c0.06826,0.23508 0.56413,0.8203 0.32496,0.76814c-0.29102,-0.06348 -0.61253,-0.06693 -0.89511,0.02727c-1.97795,0 -1.59161,2.18994 -1.59161,3.66141c0,0.19048 0.15637,1.46687 -0.06992,1.55929c-1.08748,0.44412 -3.69274,0.10819 -4.94015,0.10819c-3.74169,0 -1.05322,-2.69561 -1.86492,-4.4959c-1.07817,-2.39129 -5.1418,0.07736 -5.90057,1.21552c-1.89814,2.84923 -5.80975,2.53144 -7.11377,-0.86221c-0.44376,-1.15485 0.31198,-2.67603 0.66213,-3.72882c0.54193,-2.20899 -1.41774,-4.79539 -3.85702,-3.77195c-0.70536,0.29594 -1.86649,1.37456 -2.77423,0.82706c-0.95743,-0.57747 -1.52141,-2.79245 -1.8686,-3.79176c0.02149,-1.95206 3.80252,-4.70129 2.428,-6.52672c-1.56849,-2.08302 -3.95461,0.41464 -4.77474,-2.86588c-0.31718,-1.23723 -0.15176,-2.61222 -0.15176,-3.88628c0,-0.49567 -0.64123,-1.45812 -0.14617,-1.48257c3.37766,-0.16682 5.02489,-2.27661 4.75751,-5.60256c-0.63563,-0.49187 -1.18483,-0.64502 -1.81931,-1.00651c-0.3796,-0.21627 -0.28821,-1.17492 -0.28706,-1.42672c0.00758,-1.66723 0.75054,-2.94403 2.56512,-3.17721c1.09715,-0.14099 2.04933,0.51139 3.10905,0.64491c-0.0103,0.15265 0.02776,0.39388 0.33984,0.49791z" data-paper-data="{&quot;noHover&quot;:false,&quot;origItem&quot;:[&quot;Path&quot;,{&quot;applyMatrix&quot;:true,&quot;segments&quot;:[[[442.92026,329.87019],[-0.02061,0.30529],[-2.11944,-0.26705]],[[436.70552,328.57584],[2.19429,-0.28197],[-3.62916,0.46635]],[[431.58333,334.91667],[0.01516,-3.33446],[-0.00229,0.50359]],[[432.15938,337.76592],[-0.7592,-0.43255],[1.26896,0.72298]],[[435.79834,339.77814],[-1.27125,-0.98374],[0.53476,6.65191]],[[426.29044,350.95711],[6.75532,-0.33364],[-0.99013,0.0489]],[[426.58333,353.91667],[0,-0.99134],[0,2.54811]],[[426.88681,361.67413],[-0.63437,-2.47446],[1.64026,6.56104]],[[436.43398,367.39094],[-3.13698,-4.16604],[2.74905,3.65086]],[[431.57042,380.42315],[0.04297,-3.90411],[0.69438,1.99863]],[[435.29935,387.99279],[-1.91486,-1.15494],[1.81548,1.095]],[[440.84545,386.33549],[-1.41072,0.59189],[4.87856,-2.04688]],[[448.54345,393.86292],[1.08386,-4.41799],[-0.70029,2.10559]],[[447.21371,401.3164],[-0.88752,-2.30971],[2.60805,6.7873]],[[461.41795,403.02863],[-3.79628,5.69847],[1.51755,-2.27633]],[[473.19587,400.59213],[-2.15634,-4.78257],[1.62341,3.60058]],[[476.91667,409.58333],[-7.48339,0],[2.49481,0]],[[486.77814,409.36833],[-2.17495,0.88823],[0.45259,-0.18483]],[[486.91667,406.25],[0,0.38097],[0,-2.94292]],[[490.08982,398.92958],[-3.9559,0],[0.56516,-0.18839]],[[491.87623,398.87623],[-0.58205,-0.12695],[0.47834,0.10433]],[[491.28988,397.52959],[0.13652,0.47016],[-0.30666,-1.05609]],[[490.31101,394.92729],[0.43402,1.15819],[-0.52262,-1.39461]],[[487.77814,389.13167],[1.28583,0.80498],[-1.44753,-0.9062]],[[477.25,390.58333],[2.20335,0],[-5.02615,0]],[[455.83943,385.58495],[3.4829,4.04597],[-1.97274,-2.29166]],[[450.38509,377.75193],[1.69553,2.55174],[-4.7394,-9.48732]],[[452.01835,347.47732],[-3.19587,9.38015],[4.43778,-6.75325]],[[467.87623,330.54289],[-5.58559,5.6843],[1.79321,-1.82491]],[[474.25,326.58333],[-2.76235,0.03074],[9.74984,0]],[[500.02268,334.01835],[-8.96115,-3.06147],[2.56153,1.69568]],[[508.04471,340.30967],[-1.86564,-2.39573],[2.91992,3.74957]],[[509.23709,358.07685],[1.50471,-4.32501],[-0.01439,1.11249]],[[508.57042,361.08982],[-0.20949,-1.02364],[0.45503,2.22345]],[[519.82788,370.26146],[-3.03064,3.35336],[0.71959,-0.79621]],[[521.30132,366.26711],[-0.36155,1.08465],[1.61396,-4.84189]],[[528.64301,360.12196],[-3.35262,2.54713],[1.09852,-0.8346]],[[529.46945,353.14443],[1.28992,0.95894],[-0.19918,-0.14807]],[[525.58333,353.58333],[0.56089,0],[-1.71654,0]],[[518.43876,352.83471],[1.17072,1.47653],[-1.21538,-1.53286]],[[519.26146,342.82788],[-1.21081,1.24307],[2.5024,-2.56907]],[[525.58333,337.58333],[0,4.81076],[0.00501,-1.27076]],[[525.00215,333.65455],[0.51053,1.19108],[-4.54465,-10.60272]],[[506.60044,331.86535],[6.82356,2.19418],[-2.88019,-1.02721]],[[504.45529,321.64301],[-1.99039,2.69074],[0.46828,-0.63305]],[[506.32612,320.20065],[-0.29647,0.72949],[1.12656,-2.77202]],[[502.25,312.25],[2.86896,0],[-6.58189,0]],[[481.25,309.91667],[0,14.14584],[0,-3.69923]],[[476.25,305.58333],[3.40394,0],[-0.70219,0]],[[472.65039,305.92945],[0.49784,-0.63658],[-1.48874,1.90364]],[[471.43398,316.77573],[0.8739,-2.5403],[-3.19139,3.1597]],[[458.39935,316.4424],[2.75067,4.34247],[-0.99439,-1.56983]],[[457.76592,311.49272],[0.80766,1.4922],[-0.66016,-1.21969]],[[449.82587,312.55348],[1.10532,-0.27633],[-7.99146,1.99318]],[[450.23709,323.41018],[0.6187,-3.77902],[-0.46778,2.8572]],[[446.13259,328.40294],[1.45771,-1.21911],[0.07178,0.1321]],[[446.25,328.91667],[0,-0.21363],[0,1]],[445.25,329.91667],[[444.96144,329.91667],[0,0],[-0.03773,0.10142]],[[444.86535,330.23289],[0.02616,-0.10955],[0,0]],[[443.60044,330.86535],[0.94868,0.31623],[-0.62416,-0.20805]]],&quot;closed&quot;:true}]}" fill="#ffffff"/><path d="M229.25591,176.97736c0,0 -0.05771,0.14426 -0.18919,0.23978c-0.34408,0.78773 -0.10838,1.80907 -0.10838,2.7412c0,3.442 3.14251,6.81875 6.60969,7.51218c1.47849,0.3693 3.33045,0.41063 4.70186,0.8426c3.11836,0.98222 5.8595,4.84679 7.75511,7.34521c1.57242,2.10345 3.84502,3.0109 5.62022,4.77978c1.55262,1.54709 3.44232,4.33737 5.6379,5.04587c1.87529,0.65534 3.81055,-0.36658 5.26946,-1.88978c0.03183,-0.09398 0.06392,-0.19149 0.09809,-0.29399c0.2534,-0.74171 0.9203,-1.28498 1.16246,-1.98678c0.60607,-1.75642 -1.31062,-3.6332 -2.94367,-5.00738c0.00918,0.2679 0.02271,0.53966 0.04026,0.81249c-0.53508,-0.44957 -0.84517,-1.12969 -1.20792,-1.77205c-0.15174,-0.12538 -0.28956,-0.24165 -0.40897,-0.34779c0,0 -0.24543,-0.21816 -0.1617,-0.49979c-0.09901,-0.11498 -0.20603,-0.2228 -0.3236,-0.32098c-1.79345,-1.49766 -3.56022,-2.5603 -5.23586,-4.23594c-1.48264,-2.21362 -2.80298,-4.4663 -4.5,-6.5c-1.45963,-1.74922 -2.61333,-2.42934 -2.61333,-4.81699c0,-5.01167 -3.05015,-8.47955 -8.21594,-8.50243c-0.956,-0.1912 -1.85092,-0.07423 -2.80231,-0.14845c0.5526,0.51912 0.94871,1.30111 1.39597,1.82328c1.4004,1.63494 3.74165,4.23091 2.30916,6.34782c-1.54013,1.05795 -3.30251,3.72267 -5.27346,3.97333c-1.53423,0.19512 -4.95463,-4.43329 -5.82945,-5.71619l-0.10419,-0.09047c0,0 -0.00873,-0.00872 -0.02207,-0.02481c-0.1045,0.02923 -0.20152,0.01274 -0.28045,-0.01772c0.00473,0.2141 -0.15704,0.37587 -0.15704,0.37587c-0.055,0.0497 -0.10521,0.10131 -0.15102,0.1547c-0.02433,0.05904 -0.04816,0.11823 -0.07163,0.17745zM229.04231,175.18099l1.10291,0.25713c0,0 0.00873,0.00872 0.02207,0.02481c0.26261,-0.07347 0.47793,0.14185 0.47793,0.14185l0.22914,0.24287c0.99024,1.53102 3.10995,4.25675 4.60865,5.31541c0.29979,0.21177 1.3098,-0.6063 1.49166,-0.75806c1.18189,-0.98622 2.16323,-2.13423 3.46345,-2.96688c1.03886,-1.59993 -2.26784,-5.06234 -3.31877,-6.28038c-0.39315,-0.45567 -2.22424,-1.23112 -1.56664,-2.15842c0.33762,-0.47609 2.07106,-0.03981 2.57229,-0.04098c0.80577,-0.00188 1.42431,0.01077 2.21594,0.1691c5.62372,-0.03036 9.1174,4.09494 9.1174,9.49757c0,2.09985 1.0676,2.5983 2.38667,4.18301c1.69268,2.03355 3.03052,4.28225 4.5,6.5c1.62604,1.62605 3.35736,2.63556 5.09748,4.09739c0.39245,0.32969 0.6658,0.75211 0.91038,1.18837c1.93402,1.64202 5.33079,4.21348 4.41735,7.00946c-0.2407,0.73676 -0.92743,1.2588 -1.17088,2.01322c-0.20252,0.60758 -0.37018,1.07931 -0.72498,1.61924l-0.22914,0.24287c0,0 -0.33656,0.33656 -0.68131,0.02456c-1.35667,1.08628 -3.01605,1.56656 -4.99703,0.92955c-2.37186,-0.81032 -4.3483,-3.59841 -6.02877,-5.28745c-1.79441,-1.80356 -4.10528,-2.74956 -5.71312,-4.88689c-1.75627,-2.37413 -4.37223,-5.94816 -7.24489,-6.98812c-1.23161,-0.44586 -3.24453,-0.47702 -4.63147,-0.82407c-3.89693,-0.77938 -7.3903,-4.61139 -7.3903,-8.48781c0,-1.39121 -0.24207,-2.50966 0.46204,-3.57776c0.17561,-0.41569 0.37372,-0.82394 0.62193,-1.19959z" fill="#000000"/><path d="M229.28486,176.77387c0.04581,-0.05338 0.09628,-0.10542 0.15128,-0.15512c0,0 0.16227,-0.16256 0.15754,-0.37666c0.07894,0.03046 0.17613,0.04668 0.28064,0.01744c0.01334,0.01609 0.10554,0.07988 0.10554,0.07988l0.10422,0.09043c0.87482,1.28291 4.20864,5.86163 5.74288,5.66651c1.97095,-0.25066 3.75099,-2.93518 5.29113,-3.99313c1.43249,-2.11691 -0.85806,-4.62679 -2.25846,-6.26173c-0.44726,-0.52218 -0.8913,-1.39193 -1.4439,-1.91105c0.95139,0.07422 1.85193,-0.04544 2.80793,0.14576c5.16579,0.02289 8.24037,3.48744 8.24037,8.49911c0,2.38765 1.18007,3.07909 2.6397,4.82831c1.69702,2.0337 3.0337,4.33726 4.51634,6.55088c1.67564,1.67564 3.43919,2.74717 5.23264,4.24482c0.11758,0.09819 0.22438,0.20645 0.32339,0.32143c-0.08373,0.28162 0.16116,0.50087 0.16116,0.50087c0.11941,0.10614 0.25706,0.22274 0.4088,0.34812c0.36275,0.64236 0.67147,1.32492 1.20655,1.77448c-0.01756,-0.27283 -0.03013,-0.54625 -0.03931,-0.81415c1.63306,1.37418 3.54624,3.25647 2.94016,5.01289c-0.24216,0.7018 -0.91218,1.24891 -1.16558,1.99062c-0.03417,0.10251 -0.06667,0.20047 -0.0985,0.29445c-1.45891,1.5232 -3.40307,2.55276 -5.27836,1.89742c-2.19558,-0.70851 -4.09101,-3.49546 -5.64363,-5.04255c-1.7752,-1.76889 -4.06603,-2.6713 -5.63845,-4.77475c-1.89561,-2.49842 -4.6906,-6.40945 -7.80895,-7.39168c-1.37142,-0.43197 -3.22347,-0.4782 -4.70196,-0.8475c-3.46718,-0.69343 -6.6057,-4.08828 -6.6057,-7.53029c0,-0.93213 -0.23298,-1.95889 0.11109,-2.74662c0.13148,-0.09552 0.18955,-0.24039 0.18955,-0.24039c0.02347,-0.05921 0.04754,-0.11878 0.07187,-0.17783z" data-paper-data="{&quot;noHover&quot;:false,&quot;origItem&quot;:[&quot;Path&quot;,{&quot;applyMatrix&quot;:true,&quot;segments&quot;:[[[229.25591,176.97736],[0.02347,-0.05921],[0,0]],[[229.06672,177.21714],[0.13148,-0.09552],[-0.34408,0.78773]],[[228.95834,179.95834],[0,-0.93213],[0,3.442]],[[235.56803,187.47052],[-3.46718,-0.69343],[1.47849,0.3693]],[[240.26989,188.31312],[-1.37142,-0.43197],[3.11836,0.98222]],[[248.025,195.65834],[-1.89561,-2.49842],[1.57242,2.10345]],[[253.64522,200.43812],[-1.7752,-1.76889],[1.55262,1.54709]],[[259.28312,205.48399],[-2.19558,-0.70851],[1.87529,0.65534]],[[264.55258,203.59422],[-1.45891,1.5232],[0.03183,-0.09398]],[[264.65066,203.30022],[-0.03417,0.10251],[0.2534,-0.74171]],[[265.81312,201.31344],[-0.24216,0.7018],[0.60607,-1.75642]],[[262.86945,196.30607],[1.63306,1.37418],[0.00918,0.2679]],[[262.90971,197.11855],[-0.01756,-0.27283],[-0.53508,-0.44957]],[[261.7018,195.3465],[0.36275,0.64236],[-0.15174,-0.12538]],[[261.29282,194.99871],[0.11941,0.10614],[0,0]],[[261.13112,194.49892],[-0.08373,0.28162],[-0.09901,-0.11498]],[[260.80752,194.17794],[0.11758,0.09819],[-1.79345,-1.49766]],[[255.57166,189.942],[1.67564,1.67564],[-1.48264,-2.21362]],[[251.07166,183.442],[1.69702,2.0337],[-1.45963,-1.74922]],[[248.45834,178.625],[0,2.38765],[0,-5.01167]],[[240.2424,170.12257],[5.16579,0.02289],[-0.956,-0.1912]],[[237.44009,169.97412],[0.95139,0.07422],[0.5526,0.51912]],[[238.83606,171.7974],[-0.44726,-0.52218],[1.4004,1.63494]],[[241.14522,178.14522],[1.43249,-2.11691],[-1.54013,1.05795]],[[235.87176,182.11855],[1.97095,-0.25066],[-1.53423,0.19512]],[[230.04231,176.40235],[0.87482,1.28291],[0,0]],[229.93812,176.31189],[[229.91605,176.28708],[0.01334,0.01609],[-0.1045,0.02923]],[[229.63559,176.26936],[0.07894,0.03046],[0.00473,0.2141]],[[229.47856,176.64522],[0,0],[-0.055,0.0497]],[[229.32754,176.79992],[0.04581,-0.05338],[-0.02433,0.05904]]],&quot;closed&quot;:true}]}" fill="#ffffff"/></g></g></svg>