<svg version="1.1" xmlns="http://www.w3.org/2000/svg" xmlns:xlink="http://www.w3.org/1999/xlink" width="8.6" height="9.88629" viewBox="0,0,8.6,9.88629"><g transform="translate(-235.7,-175.05685)"><g data-paper-data="{&quot;isPaintingLayer&quot;:true}" fill-rule="nonzero" stroke="none" stroke-width="0.5" stroke-linecap="butt" stroke-linejoin="miter" stroke-miterlimit="10" stroke-dasharray="" stroke-dashoffset="0" style="mix-blend-mode: normal"><path d="M244.2211,184.3275c0,1.15473 -2.08298,0.51284 -3.43211,-0.51284c-2.37482,0 -4.93119,1.58867 -4.93119,0.43394c0,-1.15473 2.08298,-3.58991 4.4578,-3.58991c2.37482,0 3.9055,2.51408 3.9055,3.66881z" data-paper-data="{&quot;index&quot;:null}" fill="#ff0000"/><path d="M240.1578,179.34131c-2.37482,0 -4.4578,-2.43518 -4.4578,-3.58991c0,-1.15473 2.55637,0.43394 4.93119,0.43394c1.34913,-1.02569 3.43211,-1.66757 3.43211,-0.51284c0,1.15473 -1.53068,3.66881 -3.9055,3.66881z" data-paper-data="{&quot;index&quot;:null}" fill="#ff0000"/><path d="M244.3,179.98805c0,0.54468 -1.92518,0.98624 -4.3,0.98624c-2.37482,0 -4.3,-0.44155 -4.3,-0.98624c0,-0.54468 1.92518,-0.98624 4.3,-0.98624c2.37482,0 4.3,0.44155 4.3,0.98624z" data-paper-data="{&quot;index&quot;:null}" fill="#ff7171"/></g></g></svg>