<svg version="1.1" xmlns="http://www.w3.org/2000/svg" xmlns:xlink="http://www.w3.org/1999/xlink" width="123.57355" height="124.78075" viewBox="0,0,123.57355,124.78075"><defs><radialGradient cx="217.94684" cy="150.75415" r="33.14453" gradientUnits="userSpaceOnUse" id="color-1"><stop offset="0" stop-color="#ff7e9d"/><stop offset="1" stop-color="#ff7e9d" stop-opacity="0"/></radialGradient><radialGradient cx="250.11922" cy="205.49513" r="36.89525" gradientUnits="userSpaceOnUse" id="color-2"><stop offset="0" stop-color="#d8ffff"/><stop offset="1" stop-color="#d8ffff" stop-opacity="0"/></radialGradient><radialGradient cx="240.08004" cy="174.53941" r="44.19394" gradientUnits="userSpaceOnUse" id="color-3"><stop offset="0" stop-color="#ffcb72"/><stop offset="1" stop-color="#ffcb72" stop-opacity="0"/></radialGradient><radialGradient cx="212.29095" cy="186.20995" r="23.27103" gradientUnits="userSpaceOnUse" id="color-4"><stop offset="0" stop-color="#d8ffff"/><stop offset="1" stop-color="#d8ffff" stop-opacity="0"/></radialGradient><radialGradient cx="192.6183" cy="168.35119" r="14.70521" gradientUnits="userSpaceOnUse" id="color-5"><stop offset="0" stop-color="#ffe6a3"/><stop offset="1" stop-color="#ffe6a3" stop-opacity="0"/></radialGradient><radialGradient cx="251.74146" cy="165.06954" r="22.78446" gradientUnits="userSpaceOnUse" id="color-6"><stop offset="0" stop-color="#d8ffff"/><stop offset="1" stop-color="#d8ffff" stop-opacity="0"/></radialGradient><radialGradient cx="275.17747" cy="195.31118" r="27.16366" gradientUnits="userSpaceOnUse" id="color-7"><stop offset="0" stop-color="#ff8686"/><stop offset="1" stop-color="#ff8686" stop-opacity="0"/></radialGradient><radialGradient cx="238.52548" cy="205.81602" r="16.42885" gradientUnits="userSpaceOnUse" id="color-8"><stop offset="0" stop-color="#d8ffff"/><stop offset="1" stop-color="#d8ffff" stop-opacity="0"/></radialGradient><radialGradient cx="259.69171" cy="148.8318" r="27.16366" gradientUnits="userSpaceOnUse" id="color-9"><stop offset="0" stop-color="#ff9f9f"/><stop offset="1" stop-color="#ff9f9f" stop-opacity="0"/></radialGradient></defs><g transform="translate(-178.21323,-117.60962)"><g data-paper-data="{&quot;isPaintingLayer&quot;:true}" fill-rule="nonzero" stroke="none" stroke-width="0" stroke-linecap="butt" stroke-linejoin="miter" stroke-miterlimit="10" stroke-dasharray="" stroke-dashoffset="0" style="mix-blend-mode: normal"><path d="M250.41495,150.75415c0,18.30522 -14.53647,33.14453 -32.46811,33.14453c-17.93165,0 -32.46812,-14.83931 -32.46812,-33.14453c0,-18.30522 14.53647,-33.14453 32.46812,-33.14453c17.93165,0 32.46811,14.83931 32.46811,33.14453z" fill="url(#color-1)"/><path d="M286.2615,205.49513c0,20.37669 -16.18144,36.89524 -36.14229,36.89524c-19.96083,0 -36.14229,-16.51856 -36.14229,-36.89524c0,-20.37669 16.18144,-36.89525 36.14229,-36.89525c19.96083,0 36.14229,16.51856 36.14229,36.89525z" fill="url(#color-2)"/><path d="M283.37206,174.53941c0,24.40764 -19.38249,44.19394 -43.29201,44.19394c-23.90952,0 -43.29202,-19.78628 -43.29202,-44.19394c0,-24.40764 19.38249,-44.19395 43.29202,-44.19395c23.90952,0 43.29201,19.78629 43.29201,44.19395z" fill="url(#color-3)"/><path d="M235.08707,186.20995c0,12.85224 -10.20618,23.27103 -22.79611,23.27103c-12.58994,0 -22.7961,-10.41879 -22.7961,-23.27103c0,-12.85224 10.20617,-23.27103 22.7961,-23.27103c12.58995,0 22.79611,10.41879 22.79611,23.27103z" fill="url(#color-4)"/><path d="M207.02341,168.35119c0,8.12145 -6.44939,14.7052 -14.40509,14.7052c-7.95572,0 -14.40509,-6.58373 -14.40509,-14.7052c0,-8.12145 6.44939,-14.70521 14.40509,-14.70521c7.95572,0 14.40509,6.58374 14.40509,14.70521z" fill="url(#color-5)"/><path d="M274.06093,165.06954c0,12.58351 -9.99277,22.78445 -22.31947,22.78445c-12.3267,0 -22.31947,-10.20094 -22.31947,-22.78445c0,-12.58351 9.99277,-22.78445 22.31947,-22.78445c12.3267,0 22.31947,10.20094 22.31947,22.78445z" fill="url(#color-6)"/><path d="M301.78677,195.31118c0,15.00208 -11.91339,27.16366 -26.60931,27.16366c-14.69592,0 -26.6093,-12.16158 -26.6093,-27.16366c0,-15.00208 11.91338,-27.16367 26.6093,-27.16367c14.69592,0 26.60931,12.16159 26.60931,27.16367z" fill="url(#color-7)"/><path d="M254.61906,205.81602c0,9.07341 -7.20534,16.42885 -16.09358,16.42885c-8.88824,0 -16.09358,-7.35545 -16.09358,-16.42885c0,-9.07341 7.20534,-16.42885 16.09358,-16.42885c8.88824,0 16.09358,7.35545 16.09358,16.42885z" fill="url(#color-8)"/><path d="M286.30102,148.8318c0,15.00208 -11.91339,27.16365 -26.60931,27.16365c-14.69592,0 -26.6093,-12.16157 -26.6093,-27.16365c0,-15.00208 11.91338,-27.16366 26.6093,-27.16366c14.69592,0 26.60931,12.16158 26.60931,27.16366z" fill="url(#color-9)"/></g></g></svg>