<svg version="1.1" xmlns="http://www.w3.org/2000/svg" xmlns:xlink="http://www.w3.org/1999/xlink" width="509.20018" height="409.10723" viewBox="0,0,509.20018,409.10723"><g transform="translate(14.70018,35.60723)"><g data-paper-data="{&quot;isPaintingLayer&quot;:true}" fill-rule="nonzero" stroke-linejoin="miter" stroke-miterlimit="10" stroke-dasharray="" stroke-dashoffset="0" style="mix-blend-mode: normal"><path d="M-11.5,373.5v-387h506v387z" fill="#000000" stroke="none" stroke-width="0" stroke-linecap="butt"/><path d="M47.36971,125.16988l25.67947,-102.71788l104.32284,26.0807l-25.67947,102.71789z" fill="#212121" stroke="none" stroke-width="0" stroke-linecap="butt"/><path d="M269.27778,119.93994l-12.01202,105.1051" fill="none" stroke="#000000" stroke-width="0.5" stroke-linecap="round"/><path d="M219.24364,315.76405l-14.10343,-64.13235l65.13441,-14.32379l14.10343,64.13234z" fill="#212121" stroke="none" stroke-width="0" stroke-linecap="butt"/><path d="M-14.70018,247.61901l6.61928,-44.19927l44.88988,6.72271l-6.61929,44.19927z" fill="#212121" stroke="none" stroke-width="0" stroke-linecap="butt"/><path d="M412.53127,77.1009l12.28164,-17.23219l17.50144,12.47354l-12.28164,17.23219z" fill="#212121" stroke="none" stroke-width="0" stroke-linecap="butt"/><path d="M265.09393,43.14821l-14.28801,-64.24418l65.24799,-14.51126l14.28801,64.24418z" fill="#212121" stroke="none" stroke-width="0" stroke-linecap="butt"/><path d="M429.93973,348.98149l-27.07044,-35.56096l36.11659,-27.49341l27.07044,35.56096z" fill="#212121" stroke="none" stroke-width="0" stroke-linecap="butt"/></g></g></svg>