<svg version="1.1" xmlns="http://www.w3.org/2000/svg" xmlns:xlink="http://www.w3.org/1999/xlink" width="718.1209" height="391.63227" viewBox="0,0,718.1209,391.63227"><defs><linearGradient x1="240" y1="-10.5" x2="240" y2="370.5" gradientUnits="userSpaceOnUse" id="color-1"><stop offset="0" stop-color="#201781"/><stop offset="1" stop-color="#090725"/></linearGradient><linearGradient x1="188.54167" y1="267.19743" x2="288.54167" y2="267.19743" gradientUnits="userSpaceOnUse" id="color-2"><stop offset="0" stop-color="#3a57f2" stop-opacity="0"/><stop offset="1" stop-color="#3a57f2" stop-opacity="0.60484"/></linearGradient><linearGradient x1="184.04167" y1="174.94629" x2="284.04167" y2="174.94629" gradientUnits="userSpaceOnUse" id="color-3"><stop offset="0" stop-color="#f2392d" stop-opacity="0.60484"/><stop offset="1" stop-color="#f2392d" stop-opacity="0"/></linearGradient><radialGradient cx="199.29167" cy="193.29495" r="24.75" gradientUnits="userSpaceOnUse" id="color-4"><stop offset="0" stop-color="#ff7b00"/><stop offset="1" stop-color="#ff7b00" stop-opacity="0"/></radialGradient><radialGradient cx="421.36867" cy="309.48238" r="132.33373" gradientUnits="userSpaceOnUse" id="color-5"><stop offset="0" stop-color="#ffffff"/><stop offset="1" stop-color="#ffffff" stop-opacity="0"/></radialGradient><radialGradient cx="91.36868" cy="309.48238" r="132.33372" gradientUnits="userSpaceOnUse" id="color-6"><stop offset="0" stop-color="#ffffff"/><stop offset="1" stop-color="#ffffff" stop-opacity="0"/></radialGradient><radialGradient cx="377.14725" cy="166.23334" r="3.75" gradientUnits="userSpaceOnUse" id="color-7"><stop offset="0" stop-color="#ffffff"/><stop offset="1" stop-color="#ffffff" stop-opacity="0"/></radialGradient><radialGradient cx="427.81391" cy="150.90001" r="3.75" gradientUnits="userSpaceOnUse" id="color-8"><stop offset="0" stop-color="#ffffff"/><stop offset="1" stop-color="#ffffff" stop-opacity="0"/></radialGradient><radialGradient cx="451.14725" cy="139.56667" r="3.75" gradientUnits="userSpaceOnUse" id="color-9"><stop offset="0" stop-color="#ffffff"/><stop offset="1" stop-color="#ffffff" stop-opacity="0"/></radialGradient><radialGradient cx="394.48058" cy="211.56667" r="3.75" gradientUnits="userSpaceOnUse" id="color-10"><stop offset="0" stop-color="#ffffff"/><stop offset="1" stop-color="#ffffff" stop-opacity="0"/></radialGradient><radialGradient cx="383.81392" cy="60.90001" r="3.75" gradientUnits="userSpaceOnUse" id="color-11"><stop offset="0" stop-color="#ffffff"/><stop offset="1" stop-color="#ffffff" stop-opacity="0"/></radialGradient><radialGradient cx="448.57582" cy="102.99524" r="3.75" gradientUnits="userSpaceOnUse" id="color-12"><stop offset="0" stop-color="#ffffff"/><stop offset="1" stop-color="#ffffff" stop-opacity="0"/></radialGradient><radialGradient cx="447.82582" cy="64.74525" r="3.75" gradientUnits="userSpaceOnUse" id="color-13"><stop offset="0" stop-color="#ffffff"/><stop offset="1" stop-color="#ffffff" stop-opacity="0"/></radialGradient><radialGradient cx="389.32582" cy="117.99524" r="3.75" gradientUnits="userSpaceOnUse" id="color-14"><stop offset="0" stop-color="#ffffff"/><stop offset="1" stop-color="#ffffff" stop-opacity="0"/></radialGradient><radialGradient cx="338.32583" cy="58.74525" r="3.75" gradientUnits="userSpaceOnUse" id="color-15"><stop offset="0" stop-color="#ffffff"/><stop offset="1" stop-color="#ffffff" stop-opacity="0"/></radialGradient><radialGradient cx="315.82583" cy="162.99523" r="3.75" gradientUnits="userSpaceOnUse" id="color-16"><stop offset="0" stop-color="#ffffff"/><stop offset="1" stop-color="#ffffff" stop-opacity="0"/></radialGradient><radialGradient cx="365.32583" cy="207.99523" r="3.75" gradientUnits="userSpaceOnUse" id="color-17"><stop offset="0" stop-color="#ffffff"/><stop offset="1" stop-color="#ffffff" stop-opacity="0"/></radialGradient><radialGradient cx="344.32583" cy="246.24522" r="3.75" gradientUnits="userSpaceOnUse" id="color-18"><stop offset="0" stop-color="#ffffff"/><stop offset="1" stop-color="#ffffff" stop-opacity="0"/></radialGradient><radialGradient cx="102.82586" cy="156.99523" r="3.75" gradientUnits="userSpaceOnUse" id="color-19"><stop offset="0" stop-color="#ffffff"/><stop offset="1" stop-color="#ffffff" stop-opacity="0"/></radialGradient><radialGradient cx="122.32586" cy="243.99522" r="3.75" gradientUnits="userSpaceOnUse" id="color-20"><stop offset="0" stop-color="#ffffff"/><stop offset="1" stop-color="#ffffff" stop-opacity="0"/></radialGradient><radialGradient cx="105.07586" cy="87.99524" r="3.75" gradientUnits="userSpaceOnUse" id="color-21"><stop offset="0" stop-color="#ffffff"/><stop offset="1" stop-color="#ffffff" stop-opacity="0"/></radialGradient><radialGradient cx="123.82586" cy="78.24523" r="3.75" gradientUnits="userSpaceOnUse" id="color-22"><stop offset="0" stop-color="#ffffff"/><stop offset="1" stop-color="#ffffff" stop-opacity="0"/></radialGradient><radialGradient cx="226.57585" cy="64.74523" r="3.75" gradientUnits="userSpaceOnUse" id="color-23"><stop offset="0" stop-color="#ffffff"/><stop offset="1" stop-color="#ffffff" stop-opacity="0"/></radialGradient><radialGradient cx="261.82584" cy="51.24525" r="3.75" gradientUnits="userSpaceOnUse" id="color-24"><stop offset="0" stop-color="#ffffff"/><stop offset="1" stop-color="#ffffff" stop-opacity="0"/></radialGradient><radialGradient cx="175.57585" cy="53.49525" r="3.75" gradientUnits="userSpaceOnUse" id="color-25"><stop offset="0" stop-color="#ffffff"/><stop offset="1" stop-color="#ffffff" stop-opacity="0"/></radialGradient><radialGradient cx="56.32587" cy="51.99525" r="3.75" gradientUnits="userSpaceOnUse" id="color-26"><stop offset="0" stop-color="#ffffff"/><stop offset="1" stop-color="#ffffff" stop-opacity="0"/></radialGradient><radialGradient cx="82.57586" cy="75.24523" r="3.75" gradientUnits="userSpaceOnUse" id="color-27"><stop offset="0" stop-color="#ffffff"/><stop offset="1" stop-color="#ffffff" stop-opacity="0"/></radialGradient><radialGradient cx="29.40262" cy="97.5437" r="3.75" gradientUnits="userSpaceOnUse" id="color-28"><stop offset="0" stop-color="#ffffff"/><stop offset="1" stop-color="#ffffff" stop-opacity="0"/></radialGradient><radialGradient cx="21.68392" cy="64.95364" r="3.75" gradientUnits="userSpaceOnUse" id="color-29"><stop offset="0" stop-color="#ffffff"/><stop offset="1" stop-color="#ffffff" stop-opacity="0"/></radialGradient><radialGradient cx="30.26025" cy="132.70665" r="3.75" gradientUnits="userSpaceOnUse" id="color-30"><stop offset="0" stop-color="#ffffff"/><stop offset="1" stop-color="#ffffff" stop-opacity="0"/></radialGradient><radialGradient cx="16.53813" cy="108.69293" r="3.75" gradientUnits="userSpaceOnUse" id="color-31"><stop offset="0" stop-color="#ffffff"/><stop offset="1" stop-color="#ffffff" stop-opacity="0"/></radialGradient><radialGradient cx="32.83315" cy="196.17149" r="3.75" gradientUnits="userSpaceOnUse" id="color-32"><stop offset="0" stop-color="#ffffff"/><stop offset="1" stop-color="#ffffff" stop-opacity="0"/></radialGradient><radialGradient cx="66.28084" cy="175.5883" r="3.75" gradientUnits="userSpaceOnUse" id="color-33"><stop offset="0" stop-color="#ffffff"/><stop offset="1" stop-color="#ffffff" stop-opacity="0"/></radialGradient><radialGradient cx="110.87775" cy="194.45622" r="3.75" gradientUnits="userSpaceOnUse" id="color-34"><stop offset="0" stop-color="#ffffff"/><stop offset="1" stop-color="#ffffff" stop-opacity="0"/></radialGradient><radialGradient cx="87.72166" cy="130.99138" r="3.75" gradientUnits="userSpaceOnUse" id="color-35"><stop offset="0" stop-color="#ffffff"/><stop offset="1" stop-color="#ffffff" stop-opacity="0"/></radialGradient><radialGradient cx="377.14725" cy="31.14327" r="3.75" gradientUnits="userSpaceOnUse" id="color-36"><stop offset="0" stop-color="#ffffff"/><stop offset="1" stop-color="#ffffff" stop-opacity="0"/></radialGradient><radialGradient cx="427.81391" cy="15.80994" r="3.75" gradientUnits="userSpaceOnUse" id="color-37"><stop offset="0" stop-color="#ffffff"/><stop offset="1" stop-color="#ffffff" stop-opacity="0"/></radialGradient><radialGradient cx="204.98313" cy="12.48195" r="3.75" gradientUnits="userSpaceOnUse" id="color-38"><stop offset="0" stop-color="#ffffff"/><stop offset="1" stop-color="#ffffff" stop-opacity="0"/></radialGradient><radialGradient cx="315.82583" cy="27.90517" r="3.75" gradientUnits="userSpaceOnUse" id="color-39"><stop offset="0" stop-color="#ffffff"/><stop offset="1" stop-color="#ffffff" stop-opacity="0"/></radialGradient><radialGradient cx="102.82586" cy="21.90517" r="3.75" gradientUnits="userSpaceOnUse" id="color-40"><stop offset="0" stop-color="#ffffff"/><stop offset="1" stop-color="#ffffff" stop-opacity="0"/></radialGradient><radialGradient cx="29.25959" cy="14.62793" r="3.75" gradientUnits="userSpaceOnUse" id="color-41"><stop offset="0" stop-color="#ffffff"/><stop offset="1" stop-color="#ffffff" stop-opacity="0"/></radialGradient><radialGradient cx="137.75501" cy="11.91199" r="3.75" gradientUnits="userSpaceOnUse" id="color-42"><stop offset="0" stop-color="#ffffff"/><stop offset="1" stop-color="#ffffff" stop-opacity="0"/></radialGradient><radialGradient cx="274.02916" cy="18.48595" r="3.75" gradientUnits="userSpaceOnUse" id="color-43"><stop offset="0" stop-color="#ffffff"/><stop offset="1" stop-color="#ffffff" stop-opacity="0"/></radialGradient><radialGradient cx="273.29167" cy="249.12143" r="24.75" gradientUnits="userSpaceOnUse" id="color-44"><stop offset="0" stop-color="#0084ff"/><stop offset="1" stop-color="#0084ff" stop-opacity="0"/></radialGradient><radialGradient cx="461.90921" cy="112.78569" r="132.33373" gradientUnits="userSpaceOnUse" id="color-45"><stop offset="0" stop-color="#ffffff" stop-opacity="0.45998"/><stop offset="1" stop-color="#ffffff" stop-opacity="0"/></radialGradient><radialGradient cx="8.45575" cy="139.81272" r="132.33373" gradientUnits="userSpaceOnUse" id="color-46"><stop offset="0" stop-color="#ffffff" stop-opacity="0.35514"/><stop offset="1" stop-color="#ffffff" stop-opacity="0"/></radialGradient><radialGradient cx="175.95125" cy="124.02261" r="36.98142" gradientUnits="userSpaceOnUse" id="color-47"><stop offset="0" stop-color="#fe4956"/><stop offset="1" stop-color="#fe4956" stop-opacity="0"/></radialGradient><radialGradient cx="320.95126" cy="124.0226" r="36.98141" gradientUnits="userSpaceOnUse" id="color-48"><stop offset="0" stop-color="#3b5bf2"/><stop offset="1" stop-color="#3b5bf2" stop-opacity="0"/></radialGradient></defs><g transform="translate(123.87797,10.50001)"><g data-paper-data="{&quot;isPaintingLayer&quot;:true}" fill-rule="nonzero" stroke-linecap="butt" stroke-linejoin="miter" stroke-miterlimit="10" stroke-dasharray="" stroke-dashoffset="0" style="mix-blend-mode: normal"><path d="M-5.5,370.5v-381h491v381z" fill="url(#color-1)" stroke="none" stroke-width="0"/><path d="M248.54167,249.12143c0,-13.66905 11.08095,-24.75 24.75001,-24.75c13.66905,0 24.75,11.08095 24.75,24.75c0,13.66905 -11.08095,24.75 -24.75,24.75c-13.66905,0 -24.75001,-11.08095 -24.75001,-24.75z" fill="#3a57f2" stroke="#000000" stroke-width="0"/><path d="M245.54167,289.37143c-27.24186,-0.51536 -57,-32 -57,-32c0,0 29.88886,11.14496 42.54959,10.32634c11.38188,-0.73593 22.17622,-22.68117 22.17622,-22.68117l35.2742,20.35484c0,0 -17.85755,24.47564 -43.00001,24z" fill="url(#color-2)" stroke="#000000" stroke-width="0"/><path d="M228.40531,152.49949c27.24186,0.51537 55.63637,32.54546 55.63637,32.54546c0,0 -30.70704,-11.41769 -43.36777,-10.59906c-11.38188,0.73594 -21.35805,22.9539 -21.35805,22.9539l-35.27419,-20.35484c0,0 19.22118,-25.0211 44.36364,-24.54546z" data-paper-data="{&quot;index&quot;:null}" fill="url(#color-3)" stroke="#000000" stroke-width="0"/><path d="M224.04167,193.29495c0,13.66905 -11.08096,24.75 -24.75001,24.75c-13.66905,0 -24.75,-11.08095 -24.75,-24.75c0,-13.66905 11.08095,-24.75 24.75,-24.75c13.66905,0 24.75001,11.08095 24.75001,24.75z" data-paper-data="{&quot;index&quot;:null}" fill="#f2392d" stroke="#000000" stroke-width="0"/><path d="M224.04167,193.29495c0,13.66905 -11.08096,24.75 -24.75001,24.75c-13.66905,0 -24.75,-11.08095 -24.75,-24.75c0,-13.66905 11.08095,-24.75 24.75,-24.75c13.66905,0 24.75001,11.08095 24.75001,24.75z" data-paper-data="{&quot;index&quot;:null}" fill="url(#color-4)" stroke="#000000" stroke-width="0"/><path d="M340.21443,309.72069c0.06412,-15.31529 115.45849,-20.2568 116.42836,-33.53979c0.96987,-13.28299 -36.15414,-5.04787 -35.59898,-23.87931c0.51378,-17.42801 132.65858,-14.24046 132.65858,-14.24046v136.85428c0,0 -267.88934,22.95766 -264.63809,-19.36107c1.86831,-24.31811 117.99638,-18.6906 117.32146,-28.61534c-0.5171,-7.60403 -67.15073,-5.50588 -66.17133,-17.2183z" fill="url(#color-5)" stroke="none" stroke-width="0"/><path d="M78.35158,320.19651c-0.67491,9.92474 114.45316,8.79222 116.32146,33.11033c3.25125,42.31873 -235.63809,21.60857 -235.63809,21.60857v-136.85428c0,0 129.14479,-8.80629 129.65858,8.62172c0.55516,18.83145 -40.56885,13.96756 -39.59898,27.25056c0.96987,13.28299 125.36425,2.49203 123.42837,35.78728c0.9794,11.71243 -93.65424,2.87179 -94.17134,10.47582z" data-paper-data="{&quot;index&quot;:null}" fill="url(#color-6)" stroke="none" stroke-width="0"/><path d="M373.39725,166.23334c0,-2.07107 1.67893,-3.75 3.75,-3.75c2.07107,0 3.75,1.67893 3.75,3.75c0,2.07107 -1.67893,3.75 -3.75,3.75c-2.07107,0 -3.75,-1.67893 -3.75,-3.75z" fill="url(#color-7)" stroke="#000000" stroke-width="0"/><path d="M424.06391,150.90001c0,-2.07107 1.67893,-3.75 3.75,-3.75c2.07107,0 3.75,1.67893 3.75,3.75c0,2.07107 -1.67893,3.75 -3.75,3.75c-2.07107,0 -3.75,-1.67893 -3.75,-3.75z" fill="url(#color-8)" stroke="#000000" stroke-width="0"/><path d="M447.39725,139.56667c0,-2.07107 1.67893,-3.75 3.75,-3.75c2.07107,0 3.75,1.67893 3.75,3.75c0,2.07107 -1.67893,3.75 -3.75,3.75c-2.07107,0 -3.75,-1.67893 -3.75,-3.75z" fill="url(#color-9)" stroke="#000000" stroke-width="0"/><path d="M390.73058,211.56667c0,-2.07107 1.67893,-3.75 3.75,-3.75c2.07107,0 3.75,1.67893 3.75,3.75c0,2.07107 -1.67893,3.75 -3.75,3.75c-2.07107,0 -3.75,-1.67893 -3.75,-3.75z" fill="url(#color-10)" stroke="#000000" stroke-width="0"/><path d="M380.06392,60.90001c0,-2.07107 1.67893,-3.75 3.75,-3.75c2.07107,0 3.75,1.67893 3.75,3.75c0,2.07107 -1.67893,3.75 -3.75,3.75c-2.07107,0 -3.75,-1.67893 -3.75,-3.75z" fill="url(#color-11)" stroke="#000000" stroke-width="0"/><path d="M444.82582,102.99524c0,-2.07107 1.67893,-3.75 3.75,-3.75c2.07107,0 3.75,1.67893 3.75,3.75c0,2.07107 -1.67893,3.75 -3.75,3.75c-2.07107,0 -3.75,-1.67893 -3.75,-3.75z" fill="url(#color-12)" stroke="#000000" stroke-width="0"/><path d="M444.07582,64.74525c0,-2.07107 1.67893,-3.75 3.75,-3.75c2.07107,0 3.75,1.67893 3.75,3.75c0,2.07107 -1.67893,3.75 -3.75,3.75c-2.07107,0 -3.75,-1.67893 -3.75,-3.75z" fill="url(#color-13)" stroke="#000000" stroke-width="0"/><path d="M385.57582,117.99524c0,-2.07107 1.67893,-3.75 3.75,-3.75c2.07107,0 3.75,1.67893 3.75,3.75c0,2.07107 -1.67893,3.75 -3.75,3.75c-2.07107,0 -3.75,-1.67893 -3.75,-3.75z" fill="url(#color-14)" stroke="#000000" stroke-width="0"/><path d="M334.57583,58.74525c0,-2.07107 1.67893,-3.75 3.75,-3.75c2.07107,0 3.75,1.67893 3.75,3.75c0,2.07107 -1.67893,3.75 -3.75,3.75c-2.07107,0 -3.75,-1.67893 -3.75,-3.75z" fill="url(#color-15)" stroke="#000000" stroke-width="0"/><path d="M312.07583,162.99523c0,-2.07107 1.67893,-3.75 3.75,-3.75c2.07107,0 3.75,1.67893 3.75,3.75c0,2.07107 -1.67893,3.75 -3.75,3.75c-2.07107,0 -3.75,-1.67893 -3.75,-3.75z" fill="url(#color-16)" stroke="#000000" stroke-width="0"/><path d="M361.57583,207.99523c0,-2.07107 1.67893,-3.75 3.75,-3.75c2.07107,0 3.75,1.67893 3.75,3.75c0,2.07107 -1.67893,3.75 -3.75,3.75c-2.07107,0 -3.75,-1.67893 -3.75,-3.75z" fill="url(#color-17)" stroke="#000000" stroke-width="0"/><path d="M340.57583,246.24522c0,-2.07107 1.67893,-3.75 3.75,-3.75c2.07107,0 3.75,1.67893 3.75,3.75c0,2.07107 -1.67893,3.75 -3.75,3.75c-2.07107,0 -3.75,-1.67893 -3.75,-3.75z" fill="url(#color-18)" stroke="#000000" stroke-width="0"/><path d="M99.07586,156.99523c0,-2.07107 1.67893,-3.75 3.75,-3.75c2.07107,0 3.75,1.67893 3.75,3.75c0,2.07107 -1.67893,3.75 -3.75,3.75c-2.07107,0 -3.75,-1.67893 -3.75,-3.75z" fill="url(#color-19)" stroke="#000000" stroke-width="0"/><path d="M118.57586,243.99522c0,-2.07107 1.67893,-3.75 3.75,-3.75c2.07107,0 3.75,1.67893 3.75,3.75c0,2.07107 -1.67893,3.75 -3.75,3.75c-2.07107,0 -3.75,-1.67893 -3.75,-3.75z" fill="url(#color-20)" stroke="#000000" stroke-width="0"/><path d="M101.32586,87.99524c0,-2.07107 1.67893,-3.75 3.75,-3.75c2.07107,0 3.75,1.67893 3.75,3.75c0,2.07107 -1.67893,3.75 -3.75,3.75c-2.07107,0 -3.75,-1.67893 -3.75,-3.75z" fill="url(#color-21)" stroke="#000000" stroke-width="0"/><path d="M120.07586,78.24523c0,-2.07107 1.67893,-3.75 3.75,-3.75c2.07107,0 3.75,1.67893 3.75,3.75c0,2.07107 -1.67893,3.75 -3.75,3.75c-2.07107,0 -3.75,-1.67893 -3.75,-3.75z" fill="url(#color-22)" stroke="#000000" stroke-width="0"/><path d="M222.82585,64.74523c0,-2.07107 1.67893,-3.75 3.75,-3.75c2.07107,0 3.75,1.67893 3.75,3.75c0,2.07107 -1.67893,3.75 -3.75,3.75c-2.07107,0 -3.75,-1.67893 -3.75,-3.75z" fill="url(#color-23)" stroke="#000000" stroke-width="0"/><path d="M258.07584,51.24525c0,-2.07107 1.67893,-3.75 3.75,-3.75c2.07107,0 3.75,1.67893 3.75,3.75c0,2.07107 -1.67893,3.75 -3.75,3.75c-2.07107,0 -3.75,-1.67893 -3.75,-3.75z" fill="url(#color-24)" stroke="#000000" stroke-width="0"/><path d="M171.82585,53.49525c0,-2.07107 1.67893,-3.75 3.75,-3.75c2.07107,0 3.75,1.67893 3.75,3.75c0,2.07107 -1.67893,3.75 -3.75,3.75c-2.07107,0 -3.75,-1.67893 -3.75,-3.75z" fill="url(#color-25)" stroke="#000000" stroke-width="0"/><path d="M52.57587,51.99525c0,-2.07107 1.67893,-3.75 3.75,-3.75c2.07107,0 3.75,1.67893 3.75,3.75c0,2.07107 -1.67893,3.75 -3.75,3.75c-2.07107,0 -3.75,-1.67893 -3.75,-3.75z" fill="url(#color-26)" stroke="#000000" stroke-width="0"/><path d="M78.82586,75.24523c0,-2.07107 1.67893,-3.75 3.75,-3.75c2.07107,0 3.75,1.67893 3.75,3.75c0,2.07107 -1.67893,3.75 -3.75,3.75c-2.07107,0 -3.75,-1.67893 -3.75,-3.75z" fill="url(#color-27)" stroke="#000000" stroke-width="0"/><path d="M25.65262,97.5437c0,-2.07107 1.67893,-3.75 3.75,-3.75c2.07107,0 3.75,1.67893 3.75,3.75c0,2.07107 -1.67893,3.75 -3.75,3.75c-2.07107,0 -3.75,-1.67893 -3.75,-3.75z" fill="url(#color-28)" stroke="#000000" stroke-width="0"/><path d="M17.93392,64.95364c0,-2.07107 1.67893,-3.75 3.75,-3.75c2.07107,0 3.75,1.67893 3.75,3.75c0,2.07107 -1.67893,3.75 -3.75,3.75c-2.07107,0 -3.75,-1.67893 -3.75,-3.75z" fill="url(#color-29)" stroke="#000000" stroke-width="0"/><path d="M26.51025,132.70665c0,-2.07107 1.67893,-3.75 3.75,-3.75c2.07107,0 3.75,1.67893 3.75,3.75c0,2.07107 -1.67893,3.75 -3.75,3.75c-2.07107,0 -3.75,-1.67893 -3.75,-3.75z" fill="url(#color-30)" stroke="#000000" stroke-width="0"/><path d="M12.78813,108.69293c0,-2.07107 1.67893,-3.75 3.75,-3.75c2.07107,0 3.75,1.67893 3.75,3.75c0,2.07107 -1.67893,3.75 -3.75,3.75c-2.07107,0 -3.75,-1.67893 -3.75,-3.75z" fill="url(#color-31)" stroke="#000000" stroke-width="0"/><path d="M29.08315,196.17149c0,-2.07107 1.67893,-3.75 3.75,-3.75c2.07107,0 3.75,1.67893 3.75,3.75c0,2.07107 -1.67893,3.75 -3.75,3.75c-2.07107,0 -3.75,-1.67893 -3.75,-3.75z" fill="url(#color-32)" stroke="#000000" stroke-width="0"/><path d="M62.53084,175.5883c0,-2.07107 1.67893,-3.75 3.75,-3.75c2.07107,0 3.75,1.67893 3.75,3.75c0,2.07107 -1.67893,3.75 -3.75,3.75c-2.07107,0 -3.75,-1.67893 -3.75,-3.75z" fill="url(#color-33)" stroke="#000000" stroke-width="0"/><path d="M107.12775,194.45622c0,-2.07107 1.67893,-3.75 3.75,-3.75c2.07107,0 3.75,1.67893 3.75,3.75c0,2.07107 -1.67893,3.75 -3.75,3.75c-2.07107,0 -3.75,-1.67893 -3.75,-3.75z" fill="url(#color-34)" stroke="#000000" stroke-width="0"/><path d="M83.97166,130.99138c0,-2.07107 1.67893,-3.75 3.75,-3.75c2.07107,0 3.75,1.67893 3.75,3.75c0,2.07107 -1.67893,3.75 -3.75,3.75c-2.07107,0 -3.75,-1.67893 -3.75,-3.75z" fill="url(#color-35)" stroke="#000000" stroke-width="0"/><path d="M373.39725,31.14327c0,-2.07107 1.67893,-3.75 3.75,-3.75c2.07107,0 3.75,1.67893 3.75,3.75c0,2.07107 -1.67893,3.75 -3.75,3.75c-2.07107,0 -3.75,-1.67893 -3.75,-3.75z" fill="url(#color-36)" stroke="#000000" stroke-width="0"/><path d="M424.06391,15.80994c0,-2.07107 1.67893,-3.75 3.75,-3.75c2.07107,0 3.75,1.67893 3.75,3.75c0,2.07107 -1.67893,3.75 -3.75,3.75c-2.07107,0 -3.75,-1.67893 -3.75,-3.75z" fill="url(#color-37)" stroke="#000000" stroke-width="0"/><path d="M201.23313,12.48195c0,-2.07107 1.67893,-3.75 3.75,-3.75c2.07107,0 3.75,1.67893 3.75,3.75c0,2.07107 -1.67893,3.75 -3.75,3.75c-2.07107,0 -3.75,-1.67893 -3.75,-3.75z" fill="url(#color-38)" stroke="#000000" stroke-width="0"/><path d="M312.07583,27.90517c0,-2.07107 1.67893,-3.75 3.75,-3.75c2.07107,0 3.75,1.67893 3.75,3.75c0,2.07107 -1.67893,3.75 -3.75,3.75c-2.07107,0 -3.75,-1.67893 -3.75,-3.75z" fill="url(#color-39)" stroke="#000000" stroke-width="0"/><path d="M99.07586,21.90517c0,-2.07107 1.67893,-3.75 3.75,-3.75c2.07107,0 3.75,1.67893 3.75,3.75c0,2.07107 -1.67893,3.75 -3.75,3.75c-2.07107,0 -3.75,-1.67893 -3.75,-3.75z" fill="url(#color-40)" stroke="#000000" stroke-width="0"/><path d="M25.50959,14.62793c0,-2.07107 1.67893,-3.75 3.75,-3.75c2.07107,0 3.75,1.67893 3.75,3.75c0,2.07107 -1.67893,3.75 -3.75,3.75c-2.07107,0 -3.75,-1.67893 -3.75,-3.75z" fill="url(#color-41)" stroke="#000000" stroke-width="0"/><path d="M134.00501,11.91199c0,-2.07107 1.67893,-3.75 3.75,-3.75c2.07107,0 3.75,1.67893 3.75,3.75c0,2.07107 -1.67893,3.75 -3.75,3.75c-2.07107,0 -3.75,-1.67893 -3.75,-3.75z" fill="url(#color-42)" stroke="#000000" stroke-width="0"/><path d="M270.27916,18.48595c0,-2.07107 1.67893,-3.75 3.75,-3.75c2.07107,0 3.75,1.67893 3.75,3.75c0,2.07107 -1.67893,3.75 -3.75,3.75c-2.07107,0 -3.75,-1.67893 -3.75,-3.75z" fill="url(#color-43)" stroke="#000000" stroke-width="0"/><text transform="translate(221.23695,133.95307) scale(0.6925,0.6925)" font-size="40" xml:space="preserve" fill="#ffffff" fill-rule="nonzero" stroke="#ffffff" stroke-width="3" stroke-linecap="butt" stroke-linejoin="miter" stroke-miterlimit="10" stroke-dasharray="" stroke-dashoffset="0" font-family="Handwriting" font-weight="normal" text-anchor="start" style="mix-blend-mode: normal"><tspan x="0" dy="0">AND</tspan></text><text transform="translate(153.86453,103.84926) scale(0.6925,0.6925)" font-size="40" xml:space="preserve" fill="#ffffff" fill-rule="nonzero" stroke="#ffffff" stroke-width="3" stroke-linecap="butt" stroke-linejoin="miter" stroke-miterlimit="10" stroke-dasharray="" stroke-dashoffset="0" font-family="Handwriting" font-weight="normal" text-anchor="start" style="mix-blend-mode: normal"><tspan x="0" dy="0">A  DANCE  OF</tspan></text><text transform="translate(140.32847,133.95307) scale(0.80778,0.6925)" font-size="40" xml:space="preserve" fill="#fe4956" fill-rule="nonzero" stroke="#fe4956" stroke-width="3" stroke-linecap="butt" stroke-linejoin="miter" stroke-miterlimit="10" stroke-dasharray="" stroke-dashoffset="0" font-family="Handwriting" font-weight="normal" text-anchor="start" style="mix-blend-mode: normal"><tspan x="0" dy="0">FIRE</tspan></text><text transform="translate(294.17652,133.09544) scale(0.82061,0.6925)" font-size="40" xml:space="preserve" fill="#3b5bf2" fill-rule="nonzero" stroke="#3b5bf2" stroke-width="3" stroke-linecap="butt" stroke-linejoin="miter" stroke-miterlimit="10" stroke-dasharray="" stroke-dashoffset="0" font-family="Handwriting" font-weight="normal" text-anchor="start" style="mix-blend-mode: normal"><tspan x="0" dy="0">ICE</tspan></text><path d="M248.54167,249.12143c0,-13.66905 11.08095,-24.75 24.75001,-24.75c13.66905,0 24.75,11.08095 24.75,24.75c0,13.66905 -11.08095,24.75 -24.75,24.75c-13.66905,0 -24.75001,-11.08095 -24.75001,-24.75z" fill="url(#color-44)" stroke="#000000" stroke-width="0"/><path d="M380.75497,112.54736c-0.9794,-11.71242 65.65423,-9.61427 66.17133,-17.2183c0.67492,-9.92474 -115.45315,-4.29723 -117.32146,-28.61534c-3.25125,-42.31873 264.63809,-19.36107 264.63809,-19.36107v136.85428c0,0 -96.08973,-24.83678 -97.0596,-38.11977c-0.96987,-13.28299 -116.36424,-18.2245 -116.42836,-33.53979z" data-paper-data="{&quot;index&quot;:null}" fill="url(#color-45)" stroke="none" stroke-width="0"/><path d="M89.60999,139.5744c-0.06412,15.31529 -115.45849,20.2568 -116.42836,33.53979c-0.96987,13.28299 -97.0596,38.11977 -97.0596,38.11977v-136.85428c0,0 267.88934,-22.95766 264.63809,19.36107c-1.86831,24.31811 -117.99638,18.6906 -117.32146,28.61534c0.5171,7.60403 67.15073,5.50588 66.17133,17.2183z" data-paper-data="{&quot;index&quot;:null}" fill="url(#color-46)" stroke="none" stroke-width="0"/><path d="M174.51311,87.06916c40.60882,-0.88081 74.17265,14.94977 74.96692,35.35859c0.79427,20.40882 -31.4818,37.66748 -72.09062,38.54829c-40.60882,0.88081 -74.17265,-14.94977 -74.96692,-35.35859c-0.79427,-20.40882 31.4818,-37.66748 72.09062,-38.54829z" fill="url(#color-47)" stroke="none" stroke-width="0"/><path d="M319.51311,87.06916c40.60881,-0.88081 74.17265,14.94977 74.96692,35.35859c0.79427,20.40882 -31.48181,37.66747 -72.09062,38.54829c-40.60881,0.88081 -74.17265,-14.94977 -74.96692,-35.35859c-0.79427,-20.40882 31.48181,-37.66748 72.09062,-38.54829z" fill="url(#color-48)" stroke="none" stroke-width="0"/></g></g></svg>