<svg version="1.1" xmlns="http://www.w3.org/2000/svg" xmlns:xlink="http://www.w3.org/1999/xlink" width="59.28374" height="63.83825" viewBox="0,0,59.28374,63.83825"><g transform="translate(-213.1466,-140.80978)"><g data-paper-data="{&quot;isPaintingLayer&quot;:true}" fill="#ffffff" fill-rule="nonzero" stroke="#000000" stroke-width="1" stroke-linecap="butt" stroke-linejoin="miter" stroke-miterlimit="10" stroke-dasharray="" stroke-dashoffset="0" style="mix-blend-mode: normal"><path d="M250.07101,160.69713c0.96789,0.22146 2.86048,-1.21426 4.87589,0.75472c2.63975,2.46451 1.47853,2.70745 2.38652,2.92818c0.6072,1.22625 1.68471,4.01303 1.70971,4.65568c0.20265,5.20971 0.66856,0.87568 0.0365,4.49854h0.27455l0.02337,-0.01558l0.07009,0.01558h0.06966l0.55729,0.13932l0.0619,0.01376h0.75851l0.24156,0.06039l0.24873,-0.01184l0.76538,0.15308l0.30178,0.14295l0.32596,0.07244l0.52154,0.26077l0.98812,0.24703l0.04897,0.08571l0.09856,0.00547l0.83853,0.97828l0.12473,0.24945l0.01929,0.01928l0.20676,0.34461l0.26154,0.30513l0.08013,0.16026l0.02438,0.01394l0.01741,0.06966l0.03115,0.0623l0.02814,0.12665l0.01339,0.02231l-0.00464,0.01704l0.08773,0.39475l0.13932,0.55728v0.06966l0.01557,0.07009l-0.01557,0.02336v3.04145l0.01557,0.02337l-0.01557,0.07009v0.06966l-0.13932,0.55728l-0.01376,0.0619v0.44231l0.01558,0.02337l-0.01558,0.07009v0.06966l-0.13932,0.55728l-0.12461,0.56076l-0.03115,0.0623l-0.01742,0.06966l-0.02438,0.01393l-0.00067,0.00134l-0.06814,0.20443l-0.03978,0.15912l-0.12462,0.56075l-0.03062,0.06123l-0.12246,0.55108l-0.03116,0.06231l-0.01742,0.06966l-0.02438,0.01393l-0.07484,0.14968l-0.02273,0.29542l-0.12432,0.37297l-0.03977,0.15912l-0.12462,0.56076l-0.03115,0.06231l-0.01741,0.06966l-0.02438,0.01393l-0.26355,0.52711l-0.08651,0.34607l-0.12957,0.24293l-0.05973,0.26877l-0.07362,0.14724l-0.09689,0.29068l-0.09661,0.15181l-0.03904,0.17566l-0.04607,0.09216l0.01734,0.03469l-0.1894,0.53033l-0.13658,0.54632l-0.07354,0.04202l-0.02081,0.05826l-0.02759,0.35875l-0.33094,0.99282v0.20661l-0.0244,0.09759l0.03788,0.07576l-0.18941,0.53033l-0.13658,0.54632l-0.07354,0.04202l-0.03384,0.09473l-0.03936,0.05903v0.07494l0.01558,0.02337l-0.01558,0.07009v0.06966l-0.13932,0.55728l-0.12461,0.56076l-0.03116,0.0623l-0.01741,0.06966l-0.02438,0.01394l-0.27543,0.55085v0.02214l-0.13932,0.55728l-0.12461,0.56075l-0.03115,0.06231l-0.01742,0.06966l-0.02437,0.01393l-0.15375,0.3075l-0.0969,0.29068l-0.05119,0.08044l-0.28609,1.14437l-0.08571,0.04898l-0.00547,0.09857l-0.12572,0.10775l-0.08925,0.35701l-0.08571,0.04898l-0.00547,0.09856l-0.37556,0.32191l-0.09986,0.27961l-0.21982,0.32972l-0.08347,0.16694l-0.26155,0.30513l-0.20676,0.34461l-0.91847,0.91846l-0.34461,0.20676l-0.10663,0.09141l-0.16106,0.16106l-0.21353,0.12811l-0.16749,0.18425l-0.45923,0.30615l-0.09472,0.03383l-0.04203,0.07354l-0.35701,0.08925l-0.10775,0.12571l-0.09857,0.00548l-0.04898,0.08571l-1.25,0.3125h-6.27615l-0.38988,-0.09747l-0.40069,-0.03082l-0.07435,-0.02479h-4.48589l-0.0619,0.01376l-0.55728,0.13932h-0.06966l-0.07009,0.01557l-0.02336,-0.01557h-11.01149l-0.20271,-0.05068l-0.20828,0.01666l-0.71437,-0.11907h-1.63001l-0.29857,-0.07464h-0.30777l-0.31373,-0.07844h-0.91685l-0.29857,-0.07465h-0.30776l-0.31374,-0.07843h-0.60065l-0.02337,0.01558l-0.07009,-0.01558h-0.06966l-0.55728,-0.13932l-0.56076,-0.12462l-0.0623,-0.03115l-0.06966,-0.01741l-0.01393,-0.02438l-0.00134,-0.00067l-0.19959,-0.06653l-0.22059,-0.05515h-1.05988l-0.02337,0.01558l-0.0701,-0.01558h-0.06966l-0.55728,-0.13932l-0.56076,-0.12461l-0.06231,-0.03115l-0.06966,-0.01741l-0.01393,-0.02438l-0.16026,-0.08013l-0.15498,-0.13284l-0.12453,-0.00692l-0.32251,-0.37626l-0.0409,-0.03507l-0.12246,-0.06123l-0.15497,-0.13284l-0.12454,-0.00692l-0.32251,-0.37626l-0.37626,-0.32251l-0.00692,-0.12454l-0.13284,-0.15498l-0.84551,-1.69102l-0.02438,-0.01393l-0.01741,-0.06966l-0.03115,-0.06231l-0.12461,-0.56076l-0.13932,-0.55728v-0.06966l-0.01558,-0.0701l0.01558,-0.02337v-0.19657l-0.02479,-0.07435l-0.03082,-0.40069l-0.09747,-0.38988v-0.91158l-0.01376,-0.0619l-0.13932,-0.55729v-0.05353l-0.02479,-0.07435l-0.02428,-0.31564l-0.11777,-0.52996l-0.13932,-0.55728v-0.06966l-0.01557,-0.07009l0.01557,-0.02337v-0.19657l-0.02478,-0.07435l-0.03083,-0.40069l-0.09746,-0.38988v-0.76377l-0.01188,-0.04749l-0.03035,-0.0607l-0.03903,-0.17566l-0.09661,-0.15181l-0.15308,-0.45923l-0.03082,-0.40069l-0.09747,-0.38988v-0.05353l-0.02479,-0.07435l-0.03062,-0.398l-0.06627,-0.19883l-0.00067,-0.00134l-0.02438,-0.01394l-0.01741,-0.06966l-0.03115,-0.06231l-0.12462,-0.56076l-0.06391,-0.25567l-0.00076,-0.00142l-0.12979,-0.51916l-0.12271,-0.36814l-0.03083,-0.4007l-0.09746,-0.38987v-0.1462l-0.01376,-0.0619l-0.03978,-0.15912l-0.2774,-0.8322l-0.03082,-0.4007l-0.09747,-0.38987v-0.1462l-0.01376,-0.0619l-0.11291,-0.45165l-0.0512,-0.08044l-0.45923,-1.37769l-0.03082,-0.4007l-0.09747,-0.38987v-0.1462l-0.01376,-0.0619l-0.03978,-0.15912l-0.06814,-0.20442l-0.15375,-0.3075l-0.02438,-0.01393l-0.01741,-0.06966l-0.03115,-0.06231l-0.12462,-0.56076l-0.03978,-0.15912l-0.04307,-0.12922l-0.11201,-0.09601l-0.0106,-0.19087l-0.26479,-0.4161l-0.15308,-0.45923l-0.03082,-0.4007l-0.09747,-0.38987v-2.28611l-0.01558,-0.02337l0.01558,-0.07009v-0.06966l0.13932,-0.55728l0.12461,-0.56076l0.03115,-0.0623l0.01741,-0.06966l0.02438,-0.01394l0.69243,-1.38487l0.13284,-0.15498l0.00692,-0.12453l0.37626,-0.32251l0.32251,-0.37626l0.12454,-0.00692l0.15498,-0.13284l0.16026,-0.08013l0.01393,-0.02438l0.06966,-0.01741l0.06231,-0.03115l0.56076,-0.12461l0.55728,-0.13932h0.06966l0.0701,-0.01558l0.02336,0.01558h3.95991l0.02337,-0.01558l0.0701,0.01558h0.06966l0.55728,0.13932l0.10288,0.02286c0.31754,-1.42596 1.00184,-2.97943 1.04756,-4.69614c0.16887,-6.34047 4.30945,-12.42308 11.35031,-10.66287c4.23646,1.05911 2.46463,8.11543 2.45351,11.1214c-0.00756,2.04377 -0.08697,3.72396 -0.30846,5.07654l0.35216,0.07043h1.57933l0.02337,-0.01558l0.07009,0.01558h0.06966l0.55729,0.13932l0.52996,0.11777l0.31564,0.02428l0.02957,0.00986c1.25797,-0.01918 2.51599,-0.04323 3.77216,0.01492c0.15712,0.00727 2.63072,-0.24812 2.78226,-0.22036c-0.03045,-5.48913 0.28241,-3.21733 0.73221,-9.72637zM236.25096,178.04161c-0.41551,0.00106 -4.61125,-0.11145 -7.68455,-0.45923h-3.19078l-0.29857,-0.07465h-0.30777l-0.31373,-0.07843h-0.30454l-0.29857,-0.07465h-0.30777l-0.31373,-0.07843h-0.15147l-0.29857,-0.07465h-0.30776l-0.31373,-0.07843h-1.06993l-0.38988,-0.09747l-0.40069,-0.03082l-0.07435,-0.02479h-0.0435l-0.02336,0.01558l-0.0701,-0.01558h-0.06966l-0.55728,-0.13932l-0.56076,-0.12461l-0.06123,-0.03062l-0.05223,-0.01161h-2.54466v0.80023l0.05554,0.04761l0.00548,0.09856l0.08571,0.04898l0.21296,0.85184l0.12432,0.37297l0.02273,0.29542l0.14779,0.29558l0.03903,0.17566l0.09661,0.1518l0.15308,0.45923l0.02428,0.31564l0.11777,0.52996l0.13932,0.55728v0.05354l0.27475,0.82426l0.00067,0.00135l0.02438,0.01393l0.01741,0.06966l0.03115,0.06231l0.12461,0.56076l0.13932,0.55728v0.06966l0.01557,0.0701l-0.01275,0.01913l0.01093,0.04922l0.13932,0.55728v0.05353l0.17787,0.53359l0.02428,0.31564l0.11777,0.52996l0.13932,0.55728v0.05354l0.02479,0.07435l0.00752,0.09774l0.04613,0.0865l0.15308,0.61231v0.26356l0.00282,0.0127l0.09661,0.15181l0.15308,0.45923l0.03062,0.398l0.12246,0.36739l0.03082,0.40069l0.09746,0.38988v0.02213l0.04223,0.08445l0.05973,0.26877l0.12956,0.24293l0.15308,0.6123v0.30776l0.07465,0.29857v0.66585l0.02479,0.07435l0.03082,0.40069l0.09747,0.38988v0.45235l0.01376,0.0619l0.03978,0.15912l0.12432,0.37297l0.03082,0.40069l0.09747,0.38988v0.1462l0.01375,0.0619l0.13932,0.55728v0.06966l0.01557,0.07009l-0.01557,0.02337v0.6558l0.02478,0.07435l0.03082,0.40069l0.09746,0.38988v0.17522l0.31533,0.63065l0.11299,0.00628l0.0476,0.05554h0.54485l0.29857,0.07465h0.30776l0.6123,0.15308l0.0865,0.04613l0.09774,0.00751l0.45923,0.15308l0.03895,0.02478h0.54818l0.29857,0.07464h0.30776l0.31373,0.07843h0.91685l0.29857,0.07465h0.30776l0.31374,0.07843h1.52916l0.20271,0.05068l0.20829,-0.01666l0.71437,0.11907h10.65467l0.0619,-0.01376l0.55728,-0.13932h0.06966l0.07009,-0.01557l0.02337,0.01557h5.04149l0.38987,0.09747l0.4007,0.03082l0.07435,0.02479h4.79891l0.66031,-0.16508l0.02115,-0.02115l0.34461,-0.20676l0.10664,-0.09141l0.56719,-0.56718l0.0469,-0.13132l0.12044,-0.18067l0.0472,-0.14162l0.26479,-0.4161l0.0106,-0.19088l0.12572,-0.10775l0.08925,-0.35701l0.08571,-0.04897l0.00548,-0.09857l0.11419,-0.09788l0.0522,-0.23492l0.03115,-0.06231l0.01741,-0.06966l0.02438,-0.01393l0.00068,-0.00134l0.09689,-0.29068l0.09661,-0.15181l0.03903,-0.17566l0.1077,-0.21538l0.032,-0.128l0.03082,-0.40069l0.15308,-0.45924l0.09661,-0.1518l0.03904,-0.17566l0.19529,-0.3906v-0.16517l-0.01557,-0.02337l0.01557,-0.07009v-0.06966l0.13932,-0.55728l0.12462,-0.56076l0.03115,-0.0623l0.01741,-0.06966l0.02438,-0.01393l0.08013,-0.16026l0.07602,-0.08868l0.06367,-0.25469l0.03082,-0.40069l0.33094,-0.99282v-0.05354l0.0244,-0.09758l-0.03789,-0.07577l0.18941,-0.53033l0.13658,-0.54632l0.07355,-0.04202l0.03383,-0.09473l0.00536,-0.00805l0.02024,-0.08094l0.12462,-0.56076l0.03115,-0.06231l0.01741,-0.06966l0.02438,-0.01393l0.15375,-0.3075l0.0969,-0.29068l0.0966,-0.1518l0.03904,-0.17566l0.03035,-0.0607l0.08652,-0.34607l0.12956,-0.24293l0.05973,-0.26877l0.30087,-0.60173l0.02272,-0.29542l0.12432,-0.37297l0.03978,-0.15912l0.12461,-0.56075l0.03115,-0.06231l0.01742,-0.06966l0.02438,-0.01393l0.11074,-0.22148l0.11562,-0.52029l0.02428,-0.31564l0.15308,-0.45923l0.02479,-0.03895v-0.23198l-0.01558,-0.02336l0.01558,-0.07009v-0.06966l0.13932,-0.55729l0.01376,-0.0619v-2.12188l-0.46166,-0.23083l-0.19435,-0.03887h-0.66087l-0.02337,0.01558l-0.07009,-0.01558h-0.06966l-0.55728,-0.13932l-0.0619,-0.01376h-5.80317l-0.0619,0.01376l-0.55728,0.13932h-0.06966l-0.07009,0.01558l-0.02337,-0.01558h-6.10299l-0.02336,0.01558l-0.07009,-0.01558h-0.06966l-0.55728,-0.13932l-0.04922,-0.01094l-0.01913,0.01276l-0.0701,-0.01558h-0.06966l-0.55728,-0.13932l-0.0619,-0.01376h-0.74846l-0.02337,0.01558l-0.0701,-0.01558h-0.06966l-0.55728,-0.13932l-0.04922,-0.01094l-0.01914,0.01275l-0.07009,-0.01557h-0.06966l-0.55728,-0.13932l-0.0619,-0.01376h-1.06466l-0.38987,-0.09747l-0.40069,-0.03082l-0.07436,-0.02479h-0.05353l-0.38988,-0.09746l-0.40069,-0.03082l-0.05264,-0.01755c-0.38002,-0.00493 -0.76002,-0.00821 -1.13992,-0.00724z"/><path d="M222.85699,186.3398c-2.02938,-6.6584 4.80645,-7.75295 8.2397,-4.67087c0.85027,0.26215 1.47299,1.11048 1.47299,2.1165c0,0.10687 -0.00703,0.21196 -0.02061,0.31476c0.69278,3.00474 1.82708,10.24673 -2.50543,10.50726c-0.8998,0.05411 -2.76372,0.05485 -3.49488,-0.6247c-1.74286,-1.61982 -2.9459,-5.19572 -3.69177,-7.64296z"/><path d="M265.93015,150.7885c-0.89437,1.43419 -4.58124,4.25773 -6.13119,4.99304c-2.31834,1.09983 -3.65497,-1.40819 -3.13747,-3.33526c0.48936,-1.82223 4.18747,-4.21678 5.869,-5.13927c0.18896,-0.1091 0.39543,-0.19507 0.61664,-0.25316c1.33544,-0.35067 2.7023,0.44764 3.05297,1.78308c0.01801,0.06858 0.03298,0.13721 0.04501,0.20581c0.13494,0.53898 0.06228,1.14081 -0.31498,1.74577z"/><path d="M260.11666,159.31734c-0.2133,-0.81228 0.22989,-1.70805 0.65343,-2.43325c0.21661,-0.37088 0.7292,-0.46444 1.12964,-0.61973c0.645,-0.25012 3.69664,-1.57856 5.9164,-2.37946c0.29118,-0.26929 0.65085,-0.47302 1.06124,-0.58079c0.38132,-0.10013 0.7652,-0.10658 1.12726,-0.0336c0.90592,0.18261 1.67517,0.86256 1.92571,1.81668c0.35067,1.33544 -0.44764,2.7023 -1.78308,3.05297c-0.20638,0.05419 -0.41353,0.08094 -0.61755,0.08251c-3.22857,2.64055 -8.55333,4.36868 -9.41306,1.09466z"/><path d="M258.20707,143.03635c0.03759,0.12 0.06345,0.26305 0.07833,0.42627c0.0297,0.20956 0.03216,0.41803 0.00973,0.62136c-0.1456,3.39568 -3.07394,11.44278 -5.34305,10.96659c-0.82192,-0.17249 -1.42491,-0.96948 -1.88413,-1.67263c-0.23485,-0.35959 -0.06645,-0.8584 -0.04911,-1.28754c0.02381,-0.58915 1.42031,-5.57671 2.29007,-8.2646c-0.00421,-0.6123 0.2184,-1.19641 0.60675,-1.64777c0.31904,-0.37081 0.74995,-0.65202 1.25886,-0.78566c1.1875,-0.31183 2.39985,0.28486 2.90044,1.35987c0.05489,0.08576 0.0995,0.17999 0.1321,0.28408z"/><path d="M238.41944,193.29839c-1.21722,-2.18366 0.96644,-3.40088 0.96644,-3.40088l1.36248,-0.68165c3.25294,-0.89947 5.82513,-1.03061 9.16267,-0.53424c0,0 2.47098,0.37982 2.09116,2.8508c-0.37982,2.47098 -2.8508,2.09116 -2.8508,2.09116c-2.65436,-0.42422 -4.46525,-0.34018 -7.04635,0.40471l-0.28472,0.23654c0,0 -2.18366,1.21722 -3.40088,-0.96644z"/></g></g></svg>