<svg version="1.1" xmlns="http://www.w3.org/2000/svg" xmlns:xlink="http://www.w3.org/1999/xlink" width="763" height="679.09997" viewBox="0,0,763,679.09997"><defs><linearGradient x1="256" y1="-48.35001" x2="256" y2="328.64999" gradientUnits="userSpaceOnUse" id="color-1"><stop offset="0" stop-color="#b8e6f6"/><stop offset="1" stop-color="#d7fdfa"/></linearGradient><linearGradient x1="256" y1="-46.54999" x2="256" y2="-159.54999" gradientUnits="userSpaceOnUse" id="color-2"><stop offset="0" stop-color="#b8e6f6"/><stop offset="1" stop-color="#d7fdfa"/></linearGradient></defs><g transform="translate(141.5,159.54999)"><g data-paper-data="{&quot;isPaintingLayer&quot;:true}" fill-rule="nonzero" stroke="none" stroke-linecap="butt" stroke-linejoin="miter" stroke-miterlimit="10" stroke-dasharray="" stroke-dashoffset="0" style="mix-blend-mode: normal"><path d="M-99.5,328.64999v-377h711v377z" fill="url(#color-1)" stroke-width="2"/><path d="M611.5,-159.54999v113h-711v-113z" data-paper-data="{&quot;index&quot;:null}" fill="url(#color-2)" stroke-width="2"/><path d="M142.5,305.04998c0,48.32492 -63.57557,87.5 -142,87.5c-78.42443,0 -142,-39.17508 -142,-87.5c0,-48.32492 63.57557,-87.5 142,-87.5c78.42443,0 142,39.17508 142,87.5z" fill="#80c1b1" stroke-width="0"/><path d="M621.5,308.04999c0,48.32491 -63.57556,87.5 -142,87.5c-78.42444,0 -142,-39.17509 -142,-87.5c0,-48.32491 63.57556,-87.5 142,-87.5c78.42444,0 142,39.17509 142,87.5z" fill="#80c1b1" stroke-width="0"/><path d="M557.5,387.54998c0,72.90159 -134.98615,132 -301.5,132c-166.51385,0 -301.5,-59.09841 -301.5,-132c0,-72.90159 134.98615,-132 301.5,-132c166.51385,0 301.5,59.09841 301.5,132z" fill="#4b405d" stroke-width="0"/><path d="M39.9692,42.63443c-1.14672,0.87188 -2.58723,0.15162 -2.58723,0.15162c-1.62782,-0.8315 -3.43749,-1.37629 -4.88346,-2.49449c-1.44596,-1.11819 -2.43408,-2.72765 -3.64269,-4.09895c-1.8194,-2.06428 -3.92498,-3.91683 -5.41745,-6.22854c-2.71423,-4.20413 -4.81914,-9.08551 -7.13685,-13.5235c-1.26238,-2.41723 -5.07807,-8.21028 -2.85387,-11.31811c0.72436,-1.01212 9.69758,-2.66607 11.38902,-2.98923c8.35837,-1.59689 16.76726,-2.47212 25.21088,-3.24221c-0.33767,-1.3207 -0.6521,-2.6347 -0.95031,-3.93224c-0.96207,-4.18603 -3.65718,-11.10176 -1.90693,-15.36551c2.14547,-5.22658 5.23033,-4.13757 9.50418,-5.4214c4.3222,-1.29835 4.08181,-2.05912 8.19399,-3.04594c5.02186,-1.20513 10.2338,-1.72317 15.37433,-1.91273c3.80217,-0.1402 5.79748,-0.6086 9.46895,1.16128c0.95024,0.45808 1.42414,1.58009 2.28574,2.18873c1.27094,0.89781 2.70938,1.53123 4.06408,2.29685c4.74562,2.71183 9.44782,6.23127 14.44904,8.41223c6.91481,3.01544 14.20828,4.62939 21.03636,8.0168c1.63902,0.81312 3.54829,1.30908 4.82167,2.62288c0.75338,0.77729 2.88762,8.66051 2.95015,9.02981c1.40381,8.29082 0.4651,17.59695 -1.17232,25.78449c-0.28931,1.44662 -2.28356,9.985 -3.11662,10.78534c-1.33858,1.28602 -8.62538,0.10003 -9.79534,-0.02908c-9.51539,-1.06286 -19.2388,-0.81887 -28.80917,-1.05813c-8.13541,-0.20338 -16.60749,-1.04277 -24.72709,-0.38285c-5.99197,0.487 -13.08418,2.42651 -18.73909,4.43622c-3.2308,1.14821 -6.37694,2.53064 -10.05353,1.50533c-1.04519,-0.29148 -2.00224,-0.81628 -2.95642,-1.34867z" fill="#eefaff" stroke-width="0.5"/><path d="M-74,119.54998c0,-2.5 2.5,-2.5 2.5,-2.5l2.94469,0.00061c1.38854,-0.06179 2.78194,-0.08387 4.17236,-0.13321c-0.69494,-0.30459 -1.11705,-0.8674 -1.11705,-0.8674c-2.64832,-3.57542 -3.55916,-3.88271 -4.43312,-7.92562c-4.12982,-19.10423 14.68902,-31.27182 28.55303,-40.02804c5.64777,-3.56701 11.91897,-8.14903 18.68154,-9.31936c0.4049,-0.07007 10.19285,0.25401 10.74033,0.27102c8.40682,1.91657 17.3448,5.31278 26.09519,4.02849c3.06951,-0.45051 6.0668,-1.44512 8.91333,-2.67885c1.34133,-0.58136 2.36926,-1.81225 3.76356,-2.25164c6.30781,-1.9878 12.38674,1.61834 18.26054,2.97087c5.11546,1.17791 10.22457,2.13644 14.70194,5.28536c1.90748,1.34152 4.50444,2.47544 5.17351,4.70938c0.50792,1.69588 -1.48856,3.21521 -2.33427,4.77044c-0.71876,1.32178 -1.81648,2.44596 -2.35405,3.85121c-1.13945,2.97862 -1.18335,6.26757 -1.79354,9.39778c-2.10619,10.80447 -4.05899,22.29958 -8.13894,32.57223c-0.01042,0.02623 -3.78322,7.78321 -4.68449,8.06934c-6.54294,2.0772 -13.08004,-4.16955 -18.89677,-5.83848c-6.41262,-1.8399 -12.16295,-1.78006 -18.72087,-1.00741c-4.64896,0.54773 -9.25771,3.03448 -13.99966,2.07816c-1.78832,-0.36065 -3.39872,-1.32711 -5.09809,-1.99066c-6.17148,-2.46891 -12.42256,-4.71137 -18.65045,-7.03293c-2.84477,-1.06044 -5.88494,-1.65226 -8.91267,-1.87607c-0.64691,-0.04782 -1.33841,-0.49888 -1.93162,-0.23642c-0.73998,0.32739 -0.92524,1.39312 -1.62007,1.80781c-1.0487,0.6259 -2.31284,0.78692 -3.45443,1.22083c-0.40901,0.15546 -9.20039,3.6955 -9.44209,3.76569c-4.39058,1.275 -8.85419,1.18756 -13.36249,1.38623l-3.05531,0.00061c0,0 -2.5,0 -2.5,-2.5z" fill="#eefaff" stroke-width="0.5"/><path d="M472,4.54999c0,-2.5 2.5,-2.5 2.5,-2.5l0.61325,0.41988c1.23565,-0.81213 2.53028,-1.54764 3.87149,-2.19168c4.81775,-7.66187 10.35062,-14.62223 16.51139,-21.66311c3.12142,-3.56734 6.48158,-8.80006 10.25588,-11.64003c0.27008,-0.20322 8.93008,-4.24302 9.49773,-4.50899c4.1202,-1.93049 9.26313,-5.40902 13.70692,-6.35631c0.41165,-0.08775 7.28148,-0.05514 8.74954,-0.05124c5.33851,0.90329 10.43046,2.47485 15.10743,5.36443c3.61233,2.23181 6.40181,5.83446 10.03376,8.02122c1.24625,0.75036 2.6503,1.21159 3.90743,1.94356c0.87518,0.50958 1.52254,1.41095 2.46965,1.76955c2.04363,0.77378 4.29075,-1.34128 6.46263,-1.10026c1.91741,0.21278 3.60045,1.38737 5.38983,2.10838c4.2472,1.71134 8.05031,3.37459 12.00464,5.6947c1.08912,0.63902 2.42827,1.00007 3.23457,1.97187c1.83144,2.20734 3.50897,7.31633 4.49006,10.02215c0.81447,2.24626 2.43689,5.56567 0.82043,8.01022c-0.9627,1.45586 -3.21195,1.47816 -4.53649,2.61478c-1.12338,0.96401 -1.77142,2.37219 -2.65713,3.55829c-0.1978,0.25715 -6.14704,7.99791 -6.26243,8.1199c-3.41444,3.60981 -7.78021,6.72217 -11.54678,9.96824c-0.26243,0.22616 -7.64296,6.59298 -7.79113,6.69481c-3.20251,2.201 -10.04379,7.0131 -14.26791,5.04813c-5.98888,-2.78589 -8.41117,-11.15128 -12.84986,-15.56821c-7.90463,-7.86588 -18.47007,-12.36848 -28.76822,-16.1095c-3.57313,-1.31944 -7.39569,-2.56807 -11.29563,-2.14533c-1.68187,0.1823 -3.28788,0.93351 -4.97884,0.98402c-1.70683,0.05098 -3.3699,-0.64018 -5.07694,-0.68368c-3.10445,-0.0791 -6.24562,0.60806 -9.13537,1.81295c-1.66836,2.72648 -3.24431,5.55027 -4.72384,8.50931c0,0 -1.11804,2.23606 -3.35411,1.11803c-2.23607,-1.11803 -1.11803,-3.3541 -1.11803,-3.3541c0.58495,-1.1699 1.18451,-2.31976 1.79843,-3.45168l-0.56236,0.06972c0,0 -2.5,0 -2.5,-2.5z" fill="#eefaff" stroke-width="0.5"/><path d="M173,-46.95001c0,-2.5 2.5,-2.5 2.5,-2.5l3.38675,0.41987c0.68093,0.45421 1.35233,0.94345 2.02044,1.44905c1.354,-3.00946 2.71934,-6.13159 4.50055,-8.7373c3.74465,-5.47801 8.53285,-10.25647 13.4671,-14.53132c5.04003,-4.36649 9.57628,-9.23593 14.71937,-13.53629c1.41385,-1.18218 2.63149,-2.66066 4.25871,-3.52591c1.62722,-0.86525 3.53361,-1.04877 5.30448,-1.5592c4.94772,-1.42611 9.85567,-2.25874 14.93156,-3.09525c1.81204,-0.29863 3.60486,-0.93881 5.4401,-0.87127c1.83524,0.06755 3.57422,0.84587 5.36133,1.2688c1.27934,0.34714 2.68396,0.38922 3.83801,1.04142c0.56757,0.32076 0.35229,1.8239 0.98968,1.68693c1.12211,-0.24114 1.55125,-1.70417 2.44444,-2.42492c3.95057,-3.18789 8.61174,-5.43031 13.00851,-7.91282c4.35393,-2.45831 8.70786,-4.91663 13.06179,-7.37494c2.44333,-1.37955 4.70517,-3.15718 7.34108,-4.11898c6.24135,-2.27735 13.27335,-3.34162 19.72262,-4.95394c3.03621,-0.75906 5.99255,-2.19797 9.1221,-2.22261c1.84239,-0.0145 3.63867,0.58544 5.44795,0.93342c1.93608,0.37237 4.11911,0.17429 5.78599,1.22719c2.94058,1.85744 4.68176,6.7036 6.02399,9.65384c0.61395,1.39115 1.02961,2.88796 1.84186,4.17345c4.15292,6.57257 11.41975,0.73118 17.05613,1.01188c4.70404,0.23427 10.55656,3.10898 15.01551,4.59485c1.74255,0.58068 3.6531,0.81016 5.21722,1.77306c4.23302,2.6059 8.1644,8.03048 10.50128,12.28245c0.6109,1.11153 1.52328,2.16457 1.65549,3.426c0.06621,0.6317 -1.25972,9.67252 -1.40338,10.67558c-1.17482,8.20274 -3.58002,16.25261 -5.67426,24.26576c-0.60474,0.76362 -6.49591,8.35802 -7.30987,8.73754c-1.83724,0.85665 -4.04968,0.20927 -6.07653,0.24365c-3.59289,0.06095 -7.24635,-0.73894 -10.57527,-2.09205c-4.12219,-1.67556 -8.59588,-3.12026 -12.54694,-5.17397c-5.6144,-2.91828 -10.95357,-7.34359 -17.2421,-8.85954c-3.12666,-0.75374 -9.11338,-1.4113 -12.32343,-0.89401c-2.62545,0.42308 -4.74507,2.40502 -7.07292,3.69076c-5.86233,3.23793 -12.73275,5.38381 -18.91267,7.97184c-6.57801,1.4756 -13.15946,2.93572 -19.74034,4.39849c-2.8382,0.63087 -5.81742,0.74497 -8.54433,1.75362c-2.27099,0.84001 -3.80836,3.11569 -6.06079,4.00426c-1.09806,0.43318 -7.70228,1.6557 -9.31388,2.10989c-4.02236,1.13361 -8.03602,3.31763 -12.15547,4.03775c-0.12632,0.02208 -10.08734,0.94547 -10.33795,0.95479c-1.97674,0.07349 -4.05506,0.56791 -5.9341,-0.05024c-1.78243,-0.58637 -2.92722,-2.35861 -4.49983,-3.38221c-4.93022,-3.20905 -10.50851,-5.18418 -15.93004,-7.35295c-2.98582,-1.12572 -6.10077,-1.959 -8.9517,-3.39238c-1.5011,-0.75473 -2.91879,-1.70822 -4.30397,-2.72724c-0.46218,0.10618 -1.01962,0.06561 -1.67231,-0.26074c-1.10727,-0.55363 -1.39209,-1.38142 -1.39747,-2.07609c-0.94872,-0.7246 -1.9001,-1.4328 -2.87125,-2.07985l-0.61325,0.41987c0,0 -2.5,0 -2.5,-2.5z" fill="#eefaff" stroke-width="0.5"/><path d="M208.90046,47.58227c3.45382,0.4433 7.50532,2.41854 10.18452,4.53436c0.65425,0.51668 1.01307,1.3802 1.72936,1.80673c2.01539,1.20009 4.42697,1.74315 6.27064,3.19328c2.72547,2.1437 5.44424,4.13233 8.23195,6.0753c0.92568,-2.62595 1.8679,-5.22602 2.73416,-7.79775c1.60812,-4.77376 3.4332,-9.14064 5.36918,-13.75816c0.73994,-1.76482 0.72195,-3.91322 1.90887,-5.41433c2.37808,-3.00757 6.45967,-2.75064 9.67637,-3.33902c3.24881,-0.59426 6.45234,-1.41385 9.67881,-2.11939c5.80971,-1.27043 12.85114,-3.38388 18.82896,-3.21326c1.75396,0.05006 3.45701,0.61086 5.19699,0.8375c1.21051,0.15767 2.53126,-0.17685 3.64869,0.31466c5.11904,2.25164 8.51222,7.06034 12.72602,10.41446c4.30995,3.43064 6.8318,5.74014 9.49445,10.72513c0.77146,1.49577 1.84193,2.872 2.31438,4.48733c2.47803,8.47245 0.10343,17.21218 -2.60323,25.25488c-0.51963,1.54404 -0.79487,3.19669 -1.57612,4.62628c-2.29642,4.20218 -5.31969,5.4805 -8.44669,8.6075c-0.84238,0.84239 -2.98185,2.74559 -3.37504,3.9567c-0.01973,0.06078 -0.03854,0.1296 -0.05642,0.20573c2.53984,-0.35644 5.36377,-0.37747 7.54407,-0.39831c1.27745,-0.0122 2.61832,-0.32752 3.83184,0.07172c5.42924,1.78618 9.86783,8.48685 12.48841,13.01201c1.24941,2.15747 4.17293,6.6375 4.29872,9.32728c0.06865,1.46798 -0.8566,2.81158 -1.2849,4.21738c-4.16825,5.61195 -9.11736,10.27818 -14.05329,15.2141c-2.09757,2.09757 -5.20643,6.16023 -7.84683,7.75226c-3.25529,1.96277 -8.02657,2.38701 -11.58011,3.27141c-4.00495,0.99675 -7.08191,1.99546 -11.04854,-0.27141c-0.91364,-0.52213 -1.44752,-1.53765 -2.27064,-2.19327c-2.19764,-1.75044 -4.68928,-3.1153 -6.86576,-4.8903c-0.71931,0.16455 -1.43598,0.3097 -2.14881,0.42467c-3.89931,0.62889 -8.44504,0.03228 -12.40045,0.03228c-5.68154,-0.05095 -11.78186,2.32942 -17.57438,0.93312c-1.44921,-0.34933 -2.55418,-1.63691 -4,-2c-1.237,-0.31065 -2.56424,0.2202 -3.82608,0.0346c-1.17498,-0.17282 -2.26008,-0.73068 -3.39012,-1.09601l-2.32746,-1.13564c0,0 -0.48191,-0.24095 -0.88642,-0.72285c-19.29089,0.25412 -38.86003,3.96635 -56.2014,-6.91583c-2.52419,-1.584 -5.47872,-2.65246 -7.53825,-4.80627c-3.3536,-3.50714 -5.95881,-8.83855 -8.65652,-12.88511c-2.80907,-4.21957 -8.59885,-11.07726 -7.02276,-16.52013c1.78027,-6.14802 8.80454,-12.0389 12.95595,-16.67604c9.87619,-11.03176 18.18632,-23.4723 29.81005,-32.78548l1.09566,-0.87653c0,0 1.95217,-1.56173 3.51391,0.39044c0.00935,0.01169 0.01858,0.02336 0.02768,0.03502c4.4178,-0.10855 9.17812,-0.48554 13.4206,0.059z" fill="#eefaff" stroke-width="0.5"/><path d="M509.86516,131.89129c0.45103,0.26901 0.85738,0.74107 1.0602,1.55236c0.60634,2.42536 -1.81902,3.0317 -1.81902,3.0317c-1.153,0.26527 -2.42233,0.22563 -3.45899,0.79581c-2.57681,1.4173 -4.28599,4.05046 -6.65902,5.78753c-0.10286,0.0753 -8.38112,5.34091 -8.58275,5.46921c-11.23223,7.14687 -29.57141,19.19839 -41.67334,7.28986c-3.51839,-3.46216 -6.38854,-8.50298 -9.02576,-12.64389c-2.2755,-3.57579 -4.46767,-7.36591 -6.9801,-10.7843c-1.12865,-1.53563 -2.91803,-2.6773 -3.56471,-4.47001c-0.20425,-0.56621 -0.16073,-9.84256 -0.16092,-10.85733c-0.00025,-1.33734 -0.08801,-2.67752 -0.00074,-4.01201c0.03756,-0.57436 0.77163,-1.27035 0.37337,-1.6859c-0.74925,-0.7818 -2.07915,-0.63667 -3.05302,-1.11014c-1.5197,-0.73884 -2.935,-1.67551 -4.40192,-2.51427c-5.90853,-3.37842 -12.70002,-7.84605 -17.24282,-12.98064c-1.97454,-2.23176 -6.00333,-6.54402 -3.14613,-10.24781c1.10216,-1.42873 3.43942,-1.10756 5.10315,-1.80618c4.50424,-1.89139 8.40282,-4.96456 12.70489,-7.26627c6.42842,-3.41314 13.43142,-5.04569 20.42827,-6.78705c2.57656,-0.64125 5.23963,-1.26378 7.88956,-1.09713c4.97752,0.31302 10.79753,2.43727 15.73627,1.99752c7.69922,-0.68555 15.7916,-3.43129 23.36259,-5.04215c3.61751,-0.76969 6.38086,-1.67025 10.21857,-0.91509c5.63073,1.10798 9.32553,5.42965 13.46296,8.96808c2.36639,2.33522 4.6305,4.77856 7.09618,7.00868c1.1445,1.03516 2.36824,1.97962 3.57502,2.94144c0.45757,0.36468 0.84086,1.14202 1.41644,1.03681c1.22685,-0.22427 2.04015,-1.51649 3.23121,-1.88639c6.96476,-2.16299 15.78357,-1.56856 21.47582,3.3929c1.3795,1.20239 2.24715,2.88889 3.35849,4.34275c2.23995,2.93032 4.77617,5.73376 5.59676,9.50858c1.12725,5.18545 -0.24248,11.35189 -2.18345,16.0811c-0.51895,1.26443 -0.66171,2.81506 -1.65889,3.7498c-2.18457,2.0478 -5.57275,2.37532 -8.53786,2.79243c-3.75478,0.52819 -7.8139,2.26358 -11.42628,3.29615c-7.15577,2.0445 -15.89126,3.35769 -22.51402,7.06389z" fill="#eefaff" stroke-width="0.5"/><path d="M-59.87537,-67.41346c0.22588,-0.03656 0.37537,-0.03656 0.37537,-0.03656l0.61325,0.41987c5.99015,-3.98233 12.96518,-6.61853 19.77606,-8.91377c0.02692,-0.00907 2.58327,-0.78071 4.66481,-1.28583c-1.45652,-0.32305 -2.84291,-0.95178 -4.22741,-1.51501c-3.08576,-1.25533 -5.93732,-3.04015 -9.01887,-4.30579c-4.46399,-1.83343 -8.0525,-1.39948 -12.80784,-1.39948c-3.20655,0 -6.33068,-0.03515 -9.46681,-0.16481l0.02331,0.10209l-3.77124,0.86107c-0.19511,0.04889 -0.39932,0.07485 -0.60959,0.07485c-1.38071,0 -2.5,-1.11929 -2.5,-2.5c0,-0.84589 0.42011,-1.59366 1.06307,-2.04604c14.8651,-10.73033 33.75801,-24.36814 48.62311,-35.09847c6.76454,-4.88297 13.28659,-10.03143 20.4002,-14.27223l-0.22813,-0.28516l3.88879,-3.11103c0.43024,-0.35027 0.97924,-0.56027 1.57729,-0.56027c1.38071,0 2.5,1.11929 2.5,2.5c0,0.24301 -0.03467,0.47793 -0.09934,0.70007l-0.72634,2.71999c-1.33373,4.91794 -1.30082,9.15071 -1.39901,14.23217c-0.06145,3.18026 -0.74817,6.40208 -0.22657,9.53988c1.17272,7.05474 6.19891,13.38464 9.90138,19.24357c3.7234,3.68896 7.36111,7.37803 11.54563,10.56113c0.99359,0.7558 5.79509,3.70201 6.42625,4.40445c1.75011,1.94777 1.82318,4.93862 3.14818,7.19717c1.74187,2.96911 6.08449,6.23198 8.61286,8.55295c0.90131,0.82738 6.40044,5.19272 6.99085,5.78628c1.71312,1.72228 4.83529,3.06469 4.78867,5.49344c-0.02772,1.4443 -8.37643,4.37678 -9.43841,4.8495c-2.5514,1.1357 -4.58842,3.44243 -7.29968,4.11213c-4.19351,1.03582 -9.92463,-0.484 -14.10186,-1.09951c-12.70989,-1.15295 -25.36325,-2.47076 -38.03243,-4.00641c-6.29305,-0.76279 -12.69614,-1.0958 -18.7676,-2.9565c-6.03215,-1.84865 -11.12451,-3.6994 -16.63023,-6.74131c-1.61379,-0.89162 -3.43401,-1.49208 -4.82822,-2.69852c-1.39421,-1.20644 -2.24275,-2.92699 -3.36413,-4.39048c0,0 -1.5,-2 0.5,-3.5c0.81331,-0.60998 1.54394,-0.64118 2.12463,-0.46344z" fill="#eefaff" stroke-width="0.5"/><g fill="#4c425c" stroke-width="0.5"><path d="M257.77295,241.69802c0.38484,0.22161 0.84526,0.49109 1.2649,0.73794c0.90345,-0.22344 1.35518,0.68001 1.35518,0.68001l-1.51116,2.13088c-0.34118,-0.20742 -0.75558,-0.33331 -1.07982,-0.55959c-0.02338,0.01439 -0.05113,0.02394 -0.08368,0.02779c-1.04423,0.12342 -2.469,0.12453 -3.06627,-0.74088c-0.5141,-0.7449 0.50324,-1.73881 0.75486,-2.6082c0,0 0.55901,-1.11804 1.67705,-0.55902c0.47727,0.23864 0.64894,0.57915 0.68894,0.89107z"/><g><path d="M254.79126,222.17659c0.55032,-3.24181 -0.09099,-7.10592 3.91244,-8.31691c0.54134,-0.16375 1.57479,-0.32567 2.12362,-0.17074c0.23372,0.06598 2.00826,1.17324 2.12246,1.32123c0.31271,0.40522 0.05311,1.15945 0.46488,1.4635c0.19448,0.1436 1.13936,0.23858 2.01716,0.31359v-0.2991h0.83218c0.4596,0 0.83218,0.37258 0.83218,0.83218c0,0.19038 -0.06392,0.36581 -0.17148,0.50603l-0.49427,0.65902c-0.24045,0.29015 -0.40429,0.66681 -0.72135,0.87046c-0.29423,0.18899 -2.03748,0.32343 -2.25113,0.59469c-0.14112,0.17916 0.34256,2.13562 0.2889,2.38052c-0.20959,0.95649 -1.17418,3.09158 -2.04633,3.4348c-1.15592,0.45488 -3.58451,-1.74681 -3.81783,-0.48041c0,0 -0.26037,0.65093 -0.90061,0.51889c0.45561,1.30557 1.0631,2.62328 1.7079,3.86341c0.79044,0.80341 1.68216,1.55531 2.45014,2.32566l0.62236,0.46677c0.20653,0.15143 0.34062,0.39584 0.34062,0.67155c0,0.04621 -0.00377,0.09155 -0.01101,0.1357c0.40095,0.04126 1.06349,0.03709 1.56999,-0.02366c0.00471,-0.08699 0.01895,-0.17297 0.04055,-0.25816l-0.08545,-0.01709l0.16341,-0.81707c0.06986,-0.38895 0.40998,-0.68409 0.81904,-0.68409c0.27572,0 0.52012,0.13409 0.67155,0.34062l0.04624,0.06165c0.99284,-0.41434 1.97796,-0.26937 1.94517,1.42852c-0.01487,0.76982 -0.16477,1.20984 -0.39954,1.43201c0.39954,0.22141 0.39954,0.73165 0.39954,0.73165c-0.00013,0.02505 -0.00016,0.05011 -0.00007,0.07522c0.11816,0.05486 0.22428,0.13202 0.31547,0.23517c0.33538,0.37938 0.19778,0.97943 -0.1368,1.60477c0.11268,0.62853 0.27358,1.26757 0.46806,1.90998c0.08273,-0.05801 0.18656,-0.10621 0.31656,-0.13871c0.80733,-0.20183 1.00917,0.6055 1.00917,0.6055l-0.6409,0.0354c2.53049,0.01121 6.48835,0.1131 7.88219,2.58813c0.51446,0.91353 0.60371,1.99101 0.76962,3.00204c0.00712,2.67914 0.28505,5.37321 -1.1025,7.79951c-0.9582,1.67552 -2.59293,1.80102 -4.27162,2.08078c-2.76795,0.4613 -6.00078,0.98575 -7.96274,-1.52484c-0.46155,-0.76737 -1.21194,-1.6473 -1.56704,-2.45477c-0.57749,-1.31317 -0.32322,-2.66306 -0.05632,-3.99802c0.47875,-2.39453 0.55241,-5.80497 3.12749,-7.08209c0.30114,-0.14935 0.64011,-0.22492 0.99351,-0.25979c-0.08881,-0.28139 -0.17229,-0.56275 -0.24939,-0.84366c-0.29044,0.31127 -0.55171,0.55569 -0.71267,0.68288c-1.50642,1.19035 -3.21098,1.89647 -4.62709,3.13502c-1.90034,1.66207 -3.49959,3.66899 -5.28274,5.45214c-0.22127,0.21177 -0.3994,0.47933 -0.55831,0.77209c0.16589,1.7169 -1.19543,2.91901 -2.80985,3.27126l-0.05416,0.11459c0.07917,0.38614 0.58517,0.57632 0.69921,0.95363c0.01632,0.05397 0.03052,0.10834 0.04291,0.16305l0.03501,-0.01401l0.09244,0.23109c0.11246,0.11535 0.21021,0.24135 0.28137,0.38698c0.02624,0.05371 0.05034,0.10818 0.07256,0.16331l0.02461,-0.0123l0.49182,0.98364c0.06088,0.11564 0.09534,0.24736 0.09534,0.38714c0,0.4596 -0.37258,0.83218 -0.83218,0.83218c-0.09884,0 -0.19364,-0.01723 -0.28159,-0.04885l-0.98019,-0.32673l0.00226,-0.00679l-0.02534,-0.00128c-1.63997,-0.65524 -3.95321,-2.03909 -2.56331,-4.15916c-0.23207,-0.12486 -0.45128,-0.27624 -0.65249,-0.45549c-0.25658,-0.22857 -0.42601,-0.51925 -0.52159,-0.84891c-1.17745,-0.21552 -2.28876,-0.62242 -3.40331,-1.04295c-0.03684,0.11882 -0.07472,0.23637 -0.11344,0.35252c-1.70555,4.26868 -4.9441,7.69083 -9.90942,6.85855c-1.01935,-0.17086 -2.32212,-0.34949 -3.19511,-0.9919c-1.51385,-1.11399 -2.49884,-2.76065 -3.43226,-4.35489c-0.82903,-3.89493 0.48455,-10.19316 4.36294,-12.34317c1.11349,-0.61726 2.28408,-0.61437 3.49617,-0.60758l0.14353,-0.45504c0,0 0.70984,-0.23661 1.00771,0.41197c0.56978,0.07247 1.13293,0.06866 1.68227,0.25377c0.6254,0.21073 1.09681,0.73529 1.66292,1.0745c0.65362,0.39166 1.47242,0.79789 2.20112,1.25991c0.85125,-0.75455 1.67077,-1.52949 2.4411,-2.29981c0.64681,-0.64681 1.41196,-1.07074 2.03203,-1.66223c-0.10846,-0.19653 -0.29921,-0.68806 0.22077,-1.07804c0.03122,-0.02341 0.06208,-0.04428 0.09254,-0.06276c-1.8791,0.08744 -4.81035,0.88309 -4.75274,-1.6016c0.02478,-1.0685 1.02253,-1.48579 2.01582,-1.80451c0.01859,-0.07597 0.03996,-0.14977 0.06354,-0.22033c0.11655,-0.34892 2.00301,-1.62522 2.25574,-1.80893c1.57787,-1.14697 2.51784,-2.70453 4.13471,-3.8109c0.90245,-1.44731 2.15368,-3.50647 3.52485,-3.84609c0.06859,-0.26255 0.1234,-0.52882 0.16648,-0.79584zM251.92091,232.14443c2.0339,0.34527 4.03027,0.02365 6.05301,0.20749c-1.17429,-1.33461 -2.09565,-2.93104 -2.95141,-4.36484c-0.11362,-0.33786 -0.22724,-0.67572 -0.34085,-1.01359l-0.28391,-0.56781c0.14144,0.6707 -0.03455,1.52037 -0.1479,1.9572c-0.41391,1.59519 -1.37729,2.65738 -2.36456,3.77726c0.02276,0.00214 0.03561,0.00429 0.03561,0.00429zM260.72037,236.74796c-0.11643,0.31262 -0.17064,0.62932 -0.20964,0.94599c0.8791,-0.24848 1.75343,-0.51814 2.61377,-0.84071c0.45041,-0.19297 1.33742,-0.74286 2.22852,-1.10055c-0.13224,-0.39844 -0.25866,-0.80013 -0.40544,-1.18941c-0.96475,0.41447 -2.48336,0.51363 -3.4449,0.28905c-0.16654,0.67643 -0.57231,1.33182 -0.78231,1.89564zM259.93422,239.79604c-0.36158,0.50605 -0.93436,0.83089 -1.31936,1.31936c-1.21025,0.52212 -3.32591,1.48401 -2.98571,2.72117c0.21274,0.05438 0.43846,0.10945 0.5671,0.22589c0.01294,0.01171 0.02579,0.0235 0.03857,0.03536l0.00535,-0.00802l0.63353,0.42235c0.91462,-0.99161 1.84235,-1.97015 2.85338,-2.85514c1.23935,-1.08485 2.57818,-1.69029 3.86113,-2.69023c0.12608,-0.09827 0.51914,-0.45739 0.96769,-0.8558c-0.38638,0.14142 -0.7107,0.24366 -0.81121,0.28675c-1.19404,0.44784 -2.41547,0.79287 -3.63894,1.12079c-0.04933,0.09332 -0.10604,0.18587 -0.17152,0.27752zM253.97445,244.72561c-0.30143,-0.33305 -0.5032,-0.77609 -0.526,-1.27489c-0.04393,-0.96133 0.75411,-1.20026 1.09367,-1.88414c0.07209,-0.14521 0.13931,-0.28756 0.20227,-0.42758c-0.32159,0.12733 -0.64052,0.2629 -0.95627,0.40845c-0.58469,0.26953 -1.15267,0.56215 -1.71078,0.86692c0.66544,1.46911 1.19381,2.96323 1.48476,4.37087c0.24146,0.15809 0.46412,0.34014 0.65779,0.55572c0.04411,-0.05139 0.09005,-0.10189 0.13804,-0.15137c0.36595,-0.36595 0.72436,-0.74085 1.07926,-1.12007c-0.54855,-0.37019 -1.13669,-0.74727 -1.46274,-1.34393zM255.96001,237.30167c0.03041,-0.10474 0.17689,-0.13891 0.28279,-0.19438c-0.02184,-0.0303 -0.04381,-0.06035 -0.06593,-0.09009c-0.06907,0.04368 -0.14439,0.09069 -0.19875,0.09822c-0.12626,0.01751 -1.59083,0.00871 -1.59969,0.00791c-0.98638,-0.08967 -2.74285,-0.15007 -3.7962,-0.78241c0.0096,0.34676 -0.02886,0.69762 -0.13585,1.05336c-0.12344,0.41042 -0.17054,0.93774 -0.32476,1.35863c0.45112,0.73303 0.88711,1.50203 1.29167,2.28889c0.54144,-0.37617 1.09403,-0.73586 1.69549,-1.01375c0.76867,-0.35513 1.55561,-0.65138 2.35357,-0.91374c0.1645,-0.58103 0.31092,-1.16945 0.49765,-1.81264zM259.32936,234.15191c0.2045,0.10581 0.4258,0.20699 0.61551,0.33251c0.00873,-0.08689 0.00093,-0.16212 -0.02878,-0.22043c-0.01043,-0.02046 -0.26202,-0.06405 -0.58672,-0.11208zM257.86197,236.86463c0.10997,0.16913 0.228,0.31763 0.3671,0.42925c0.10927,0.08768 -0.03907,-0.28381 -0.00724,-0.42026c0.10688,-0.45822 0.6694,-0.80578 0.61072,-1.27263c-0.04554,-0.36237 -0.68891,-0.2524 -1.0477,-0.32063c-0.41395,-0.07872 -0.83706,-0.14917 -1.266,-0.21274c0.01909,0.012 0.03807,0.02416 0.05693,0.03648c0.27598,0.18034 0.48426,0.42459 0.66025,0.68854c0.28508,0.12987 0.50598,0.28874 0.62895,0.48408c0.11135,0.17687 0.0745,0.37814 -0.003,0.5879zM254.26497,225.16428c0.06576,-0.0936 0.15032,-0.17305 0.2482,-0.23284c-0.03777,-0.01148 -0.07745,-0.02588 -0.11751,-0.04397c-0.04473,0.08682 -0.08826,0.18142 -0.13069,0.2768zM246.52793,234.55549c0.67892,-0.02401 1.39876,0.01348 2.01199,0.15869c-0.3173,-0.14804 -0.63249,-0.31237 -0.95459,-0.50199c-0.33239,0.14499 -0.6979,0.27098 -1.05739,0.3433zM245.73288,234.61187c-0.23728,-0.02158 -0.45573,-0.08522 -0.64044,-0.2041c-0.08166,0.03168 -0.22003,0.06185 -0.36125,0.0838c0.29885,0.06183 0.65781,0.16141 0.8128,0.14212c0.06179,-0.00769 0.12481,-0.01498 0.1889,-0.02181zM270.52962,245.78548c0.72744,0.06671 0.72744,0.82752 0.72744,0.82752v1.49792c0,0.4596 -0.37258,0.83218 -0.83218,0.83218c-0.40906,0 -0.74918,-0.29514 -0.81904,-0.68409l-0.15218,-0.76089c-0.72925,-1.82059 -1.70225,-3.86428 -2.48833,-5.95224c-0.31807,0.00497 -0.61774,0.04514 -0.84915,0.16261c-1.89886,0.96402 -1.8512,4.16423 -2.19845,5.89989c-0.19412,0.9703 -0.49093,2.02962 -0.05632,2.99228c0.3307,0.7325 1.0065,1.49969 1.4288,2.20543c1.32079,1.89725 4.46925,1.11885 6.35072,0.80526c1.07236,-0.17874 2.45085,-0.11827 3.05154,-1.24793c1.15669,-2.17527 0.88747,-4.46708 0.89473,-6.84682c-0.15894,-0.93669 -0.19918,-2.09405 -0.92415,-2.80891c-1.18135,-1.16488 -3.96601,-1.25584 -5.71286,-1.25532c-0.07675,0.05435 -0.15869,0.09107 -0.23437,0.11589c0.57808,1.46079 1.24068,2.89491 1.81378,4.21725zM251.95494,248.78248c-0.55153,-0.63032 -0.71268,-0.21847 -0.8294,0.15116l0.05225,-0.03134c0.12762,-0.07962 0.27837,-0.12563 0.43988,-0.12563c0.15145,0 0.29345,0.04046 0.41578,0.11115c-0.0219,-0.03526 -0.04796,-0.07043 -0.0785,-0.10533zM250.8772,245.6501c0.18402,-0.04785 0.4138,-0.05726 0.65468,-0.03321c-0.24966,-0.78536 -0.55899,-1.584 -0.9111,-2.3763c-1.74399,1.01469 -3.44829,2.05478 -5.33499,2.76316c0.01652,0.74608 -0.06985,1.50491 -0.21896,2.24337c0.98375,0.30255 1.98879,0.5985 3.05511,0.81475c0.3771,-1.52041 1.54948,-3.09825 2.75526,-3.41176zM240.70209,247.09624c0.9491,0.15198 1.86453,0.39407 2.77963,0.66536c0.08087,-0.41044 0.13824,-0.8292 0.15861,-1.2455c-0.1194,0.02931 -0.23967,0.05709 -0.36086,0.08327c-0.86664,0.14218 -1.72252,0.31554 -2.57738,0.49687zM239.85378,245.53626c1.20306,-0.28532 2.59602,-0.48445 3.12564,-0.57397c0.17066,-0.03001 0.3322,-0.08766 0.48904,-0.16c-0.16179,-0.56713 -0.44338,-1.09644 -0.88698,-1.55418c-0.57267,0.52223 -1.15609,1.03408 -1.76525,1.5211c-0.32036,0.25612 -0.64123,0.51192 -0.96246,0.76705zM249.37917,242.39239c0.22219,-0.12306 0.439,-0.25586 0.65263,-0.39455c-0.61364,-1.21991 -1.31013,-2.39902 -2.02488,-3.46224c-0.34463,0.27527 -0.72602,0.53059 -1.18761,0.89849c-1.05814,0.84334 -2.03814,1.76223 -3.01823,2.6811c0.55658,0.58213 0.9314,1.24108 1.16547,1.943c1.47505,-0.53462 2.98834,-0.87697 4.41261,-1.66581zM241.91724,248.74879c-1.59723,-0.44442 -3.68112,-0.22442 -5.2922,0.02777c-0.53204,-0.23383 -1.38771,-0.159 -1.59613,-0.7015c-0.25817,-0.67199 0.70587,-1.62315 1.63501,-2.35617c0.0546,-0.06233 0.12436,-0.11904 0.21322,-0.16505c0.46415,-0.35281 0.89454,-0.63985 1.12777,-0.79646c1.10419,-0.74146 2.20593,-1.57656 3.27392,-2.46046c-0.59598,-0.34596 -1.23407,-0.65817 -1.73981,-0.962c-0.46322,-0.27828 -0.81932,-0.75472 -1.33292,-0.92273c-0.45109,-0.14756 -0.95105,-0.18246 -1.45798,-0.24154c-0.21647,0.11781 -0.44252,0.11781 -0.44252,0.11781c-1.03727,0 -2.13821,-0.13649 -3.08745,0.39259c-3.13959,1.74994 -4.1957,7.16329 -3.62597,10.29208c0.82689,1.33698 1.63209,2.66121 2.89229,3.63402c0.60244,0.46504 1.77303,0.5581 2.4637,0.67246c4.14344,0.68607 6.65221,-2.26123 8.06562,-5.79055c0.03885,-0.11653 0.07732,-0.23557 0.11498,-0.35676c-0.39845,-0.13893 -0.80128,-0.26935 -1.21152,-0.38349z"/><path d="M252.69358,232.70971c0.58844,-0.58844 1.17688,0 1.17688,0l0.00615,0.04129c0.8863,0.5343 2.26151,1.40741 3.37511,1.06872c0.97184,-0.29558 0.95251,-0.84548 2.11978,-0.68517c0.02293,0.00315 0.0458,0.00651 0.06864,0.01007v-0.01291h1.33148c0.4596,0 0.83218,0.37258 0.83218,0.83218c0,0.3572 -0.22505,0.66185 -0.54111,0.77986l-0.25046,0.10019c0.19352,0.36205 0.16852,0.89682 -0.22922,1.64478c-0.06607,0.12425 -0.17954,0.22661 -0.3286,0.31072c-0.07946,0.37679 -0.41383,0.65962 -0.81426,0.65962c-0.11593,0 -0.22632,-0.0237 -0.32659,-0.06653l-0.59987,-0.23995c-0.94987,0.04608 -1.95393,-0.02545 -2.40227,-0.0264c-3.03588,-0.00643 -6.79752,-0.37227 -9.74787,-1.66957c-0.04363,0.00154 -0.08725,0.00258 -0.13083,0.00312l-0.02604,-0.07332c-0.00723,-0.0033 -0.01445,-0.00659 -0.02167,-0.0099l-0.01099,0.07695l-0.06739,-0.00963l-0.04354,0.15241l-1.14736,-0.32782c-0.35746,-0.09338 -0.62125,-0.41849 -0.62125,-0.80522c0,-0.4596 0.37258,-0.83218 0.83218,-0.83218c0.04487,0 0.08892,0.00356 0.13186,0.01039l1.10905,0.15843c0.43618,0.0061 0.87787,-0.10557 1.27943,-0.27574c0,0 0.77266,-0.30906 1.08172,0.46359c0.0592,0.14799 0.07871,0.27898 0.07157,0.39404c0.33784,0.09725 0.67293,0.19747 0.99201,0.26584c2.42403,0.51936 4.84627,0.81131 7.31773,0.81424c0.00313,0 0.00628,-0.00001 0.00946,-0.00003c-1.438,-0.01698 -3.01126,-0.63359 -4.0992,-1.28361l-0.32672,-0.29158c0,0 -0.58844,-0.58844 0,-1.17688z"/><path d="M249.49671,231.89696c-0.26316,-0.78948 0.52632,-1.05263 0.52632,-1.05263l0.33431,-0.09055c0.88443,-0.50789 1.58143,-1.2082 2.21193,-1.97701c-0.35618,-0.09425 -0.61873,-0.41874 -0.61873,-0.80455c0,-0.27572 0.13409,-0.52012 0.34062,-0.67155l0.55916,-0.41937c0.65423,-1.12774 1.38467,-2.10874 2.42893,-2.90353c0,0 0.27041,-0.20281 0.59581,-0.17758l0.37708,-0.30167c0.14321,-0.1166 0.32596,-0.1865 0.52504,-0.1865c0.4596,0 0.83218,0.37258 0.83218,0.83218v0.99861h-0.03773c0.00219,0.10612 -0.00537,0.21227 -0.02562,0.31846c-0.05153,0.27027 -1.52238,1.53868 -1.77727,1.85803c-1.42063,1.77993 -2.5824,3.64089 -4.5551,4.86165l-0.6643,0.24232c0,0 -0.78948,0.26316 -1.05263,-0.52632z"/></g></g></g></g></svg>