<svg version="1.1" xmlns="http://www.w3.org/2000/svg" xmlns:xlink="http://www.w3.org/1999/xlink" width="509.20018" height="409.10722" viewBox="0,0,509.20018,409.10722"><g transform="translate(14.70018,35.60721)"><g data-paper-data="{&quot;isPaintingLayer&quot;:true}" fill-rule="nonzero" stroke-linejoin="miter" stroke-miterlimit="10" stroke-dasharray="" stroke-dashoffset="0" style="mix-blend-mode: normal"><path d="M-11.5,373.50001v-387h506v387z" fill="#000000" stroke="none" stroke-width="0" stroke-linecap="butt"/><path d="M47.36972,125.1699l25.67947,-102.71788l104.32284,26.08071l-25.67947,102.71789z" fill="#212121" stroke="none" stroke-width="0" stroke-linecap="butt"/><path d="M269.27778,119.93995l-12.01202,105.1051" fill="none" stroke="#000000" stroke-width="0.5" stroke-linecap="round"/><path d="M219.24364,315.76406l-14.10342,-64.13235l65.13441,-14.32379l14.10343,64.13234z" fill="#212121" stroke="none" stroke-width="0" stroke-linecap="butt"/><path d="M-14.70018,247.61902l6.61929,-44.19926l44.88988,6.7227l-6.61929,44.19928z" fill="#212121" stroke="none" stroke-width="0" stroke-linecap="butt"/><path d="M412.53127,77.10091l12.28164,-17.23219l17.50144,12.47354l-12.28164,17.23219z" fill="#212121" stroke="none" stroke-width="0" stroke-linecap="butt"/><path d="M265.09394,43.14823l-14.28801,-64.24418l65.24798,-14.51126l14.28801,64.24418z" fill="#212121" stroke="none" stroke-width="0" stroke-linecap="butt"/><path d="M429.93974,348.9815l-27.07044,-35.56096l36.11659,-27.49341l27.07044,35.56096z" fill="#212121" stroke="none" stroke-width="0" stroke-linecap="butt"/></g></g></svg>